<?xml version="1.0" encoding="UTF-8"?>
<!DOCTYPE svg PUBLIC "-//W3C//DTD SVG 1.1//EN" "http://www.w3.org/Graphics/SVG/1.1/DTD/svg11.dtd">
<!-- Creator: CorelDRAW -->
<svg xmlns="http://www.w3.org/2000/svg" xml:space="preserve" width="8.5in" height="11in" version="1.1" style="shape-rendering:geometricPrecision; text-rendering:geometricPrecision; image-rendering:optimizeQuality; fill-rule:evenodd; clip-rule:evenodd"
viewBox="0 0 8500 11000"
 xmlns:xlink="http://www.w3.org/1999/xlink">
 <defs>
  <style type="text/css">
   <![CDATA[
    .fil7 {fill:none}
    .fil0 {fill:#0A0C0D}
    .fil6 {fill:#131617}
    .fil2 {fill:#225C15}
    .fil3 {fill:#FEFEFE}
    .fil1 {fill:#FFF000}
    .fil4 {fill:#0A0C0D;fill-rule:nonzero}
    .fil8 {fill:#2E3639;fill-rule:nonzero}
    .fil5 {fill:#D11017;fill-rule:nonzero}
   ]]>
  </style>
 </defs>
 <g id="Layer_x0020_1">
  <metadata id="CorelCorpID_0Corel-Layer"/>
  <g id="logo_kabupaten_sumenep.cdr">
   <path class="fil0" d="M3830 4505c-55,156 -149,256 -269,318 207,294 88,514 35,735 -44,185 -16,295 150,401 187,119 437,135 504,269 67,-134 317,-150 504,-269 166,-106 194,-216 150,-401 -53,-221 -172,-441 35,-735 -120,-62 -214,-162 -269,-318 -257,107 -583,107 -840,0z"/>
   <path class="fil1" d="M3605 4833c77,119 114,243 102,387 -11,120 -53,229 -81,345 -42,173 -17,270 137,368 90,57 192,89 291,126 67,25 147,58 196,114 49,-56 129,-89 196,-114 99,-37 201,-69 291,-126 154,-98 179,-195 137,-368 -28,-116 -70,-225 -81,-345 -12,-144 25,-268 102,-387 -115,-67 -193,-164 -243,-288 -250,95 -554,95 -804,0 -50,124 -128,221 -243,288z"/>
   <path class="fil0" d="M4250 6140c52,-49 123,-78 188,-103 97,-36 199,-67 287,-124 145,-92 166,-179 127,-342 -28,-117 -71,-228 -82,-349 -12,-139 21,-264 93,-381 -102,-66 -175,-156 -223,-266 -244,86 -536,86 -780,0 -48,110 -121,200 -223,266 72,117 105,242 93,381 -11,121 -54,232 -82,349 -39,163 -18,250 127,342 88,57 190,88 287,124 65,25 136,54 188,103z"/>
   <path class="fil2" d="M4852 4843c-98,-64 -169,-152 -217,-259 -242,84 -528,84 -770,0 -48,107 -119,195 -217,259 69,118 102,243 89,380 -10,121 -53,233 -81,349 -38,160 -19,244 123,335 88,56 189,87 286,123 64,25 133,53 185,100 52,-47 121,-75 185,-100 97,-36 198,-67 286,-123 142,-91 161,-175 123,-335 -28,-116 -71,-228 -81,-349 -13,-137 20,-262 89,-380z"/>
   <path class="fil3" d="M3707 5730c110,1 196,-39 202,-7 -13,7 -22,16 -29,33 1,31 1,62 1,93 -27,-17 -77,11 -167,-6 11,-16 44,-31 76,-42 -34,-17 -61,-39 -83,-71z"/>
   <path class="fil4" d="M3707 5726c47,0 90,-7 124,-13 47,-7 78,-13 82,10l0 3 -2 1c-6,3 -12,7 -16,12 -4,4 -8,10 -10,18l0 92 0 7 -6 -4c-11,-7 -28,-5 -51,-3 -29,3 -66,7 -115,-2l-6 -2 4 -5c6,-8 17,-16 31,-24 12,-5 25,-11 38,-16 -14,-7 -27,-16 -39,-26 -14,-12 -26,-26 -37,-42l-5 -6 8 0zm126 -5c-33,6 -73,13 -118,13 9,13 20,24 31,34 14,11 29,21 46,29l8 5 -9 3c-15,5 -31,12 -45,19 -10,5 -19,10 -24,16 44,8 78,4 105,1 21,-2 37,-4 50,1l-1 -86 1 -1c3,-10 7,-16 12,-22 4,-5 9,-8 15,-12 -6,-11 -32,-6 -71,0z"/>
   <path class="fil3" d="M3880 5756c20,68 154,-18 136,46 -12,36 -24,72 -36,108 -8,-3 -32,17 -97,6 -20,-12 -29,-154 -3,-160z"/>
   <path class="fil4" d="M3884 5755c9,32 48,26 81,21 17,-2 33,-5 43,-2 11,3 16,12 11,29l0 1 -35 107 -1 4 -4 -1c-1,-1 -5,0 -10,2 -14,4 -40,12 -87,4l-2 0c-5,-4 -10,-16 -14,-32 -4,-19 -6,-46 -6,-70 0,-25 3,-47 10,-58 2,-4 6,-7 10,-8l3 -1 1 4zm82 29c-34,5 -75,11 -88,-22 0,1 -1,1 -1,2 -6,10 -9,30 -9,54 0,23 2,49 6,69 3,13 7,22 10,25 45,7 70,0 83,-4 4,-1 8,-2 11,-2l34 -105c3,-12 0,-17 -6,-19 -9,-2 -24,0 -40,2z"/>
   <path class="fil3" d="M4793 5730c-110,1 -196,-39 -202,-7 13,7 22,16 29,33 -1,31 -1,62 -1,93 27,-17 77,11 167,-6 -11,-16 -44,-31 -76,-42 34,-17 61,-39 83,-71z"/>
   <path class="fil4" d="M4785 5734c-45,0 -85,-7 -118,-13 -39,-6 -65,-11 -71,0 6,4 11,7 15,12 5,6 9,12 12,22l1 1 -1 86c13,-5 29,-3 50,-1 27,3 61,7 105,-1 -5,-6 -14,-11 -24,-16 -14,-7 -30,-14 -45,-19l-9 -3 8 -5c17,-8 32,-18 46,-29 11,-10 22,-21 31,-34zm-116 -21c34,6 77,13 124,13l8 0 -5 6c-11,16 -23,30 -37,42 -12,10 -25,19 -39,26 13,5 26,11 38,16 14,8 25,16 31,24l4 5 -6 2c-49,9 -86,5 -115,2 -23,-2 -40,-4 -51,3l-6 4 0 -7 0 -92c-2,-8 -6,-14 -10,-18 -4,-5 -10,-9 -16,-12l-2 -1 0 -3c4,-23 35,-17 82,-10z"/>
   <path class="fil3" d="M4620 5756c-20,68 -154,-18 -136,46 12,36 24,72 36,108 8,-3 32,17 97,6 20,-12 29,-154 3,-160z"/>
   <path class="fil4" d="M4622 5762c-13,33 -54,27 -88,22 -16,-2 -31,-4 -40,-2 -6,2 -9,7 -6,19l34 105c3,0 7,1 11,2 13,4 38,11 83,4 3,-3 7,-12 10,-25 4,-20 6,-46 6,-69 0,-24 -3,-44 -9,-54 0,-1 -1,-1 -1,-2zm-87 14c33,5 72,11 81,-21l1 -4 3 1c4,1 8,4 10,8 7,11 10,33 10,58 0,24 -2,51 -6,70 -4,16 -9,28 -14,32l-2 0c-47,8 -73,0 -87,-4 -5,-2 -9,-3 -10,-2l-4 1 -1 -4 -35 -107 0 -1c-5,-17 0,-26 11,-29 10,-3 26,0 43,2z"/>
   <path class="fil3" d="M4189 5938c-45,13 -108,30 -194,13 -29,-45 -20,-136 21,-149 7,46 99,16 171,3 42,-8 84,-8 126,0 72,13 164,43 171,-3 41,13 50,104 21,149 -80,15 -139,2 -183,-10 -50,-13 -83,-17 -133,-3z"/>
   <path class="fil4" d="M4190 5942c-23,7 -50,14 -82,18 -33,3 -70,3 -113,-5l-2 0 -1 -2c-5,-7 -9,-16 -12,-26 -7,-22 -8,-48 -4,-71 4,-24 14,-44 29,-53 3,-2 6,-3 9,-5l5 -1 1 5c4,25 40,23 84,16 14,-3 29,-6 44,-9 13,-3 26,-6 39,-8 21,-4 42,-6 63,-6 21,0 42,2 63,6 13,2 26,5 39,8 15,3 30,6 44,9 44,7 80,9 84,-16l1 -5 5 1c3,2 6,3 9,5 15,9 25,29 29,53 4,23 3,49 -4,71 -3,10 -7,19 -12,26l-1 2 -2 0c-40,8 -75,8 -105,5 -31,-3 -57,-9 -79,-15 -25,-7 -46,-11 -66,-11 -20,-1 -41,1 -65,8zm-83 10c32,-4 58,-11 80,-18 26,-7 47,-9 68,-9 21,1 42,5 68,12 22,6 47,12 77,15 30,3 64,3 102,-5 4,-6 8,-14 10,-22 6,-21 8,-46 4,-68 -4,-21 -12,-39 -25,-47 -1,-1 -2,-2 -4,-2 -8,27 -47,26 -92,18 -14,-3 -30,-6 -45,-9 -13,-3 -26,-6 -38,-8 -21,-4 -41,-6 -62,-6 -21,0 -41,2 -62,6 -12,2 -25,5 -38,8 -15,3 -31,6 -45,9 -45,8 -84,9 -92,-18 -2,0 -3,1 -4,2 -13,8 -21,26 -25,47 -4,22 -2,47 4,68 2,8 6,16 10,22 41,8 78,8 109,5z"/>
   <path class="fil5" d="M4008 5899l12 0c0,4 1,7 3,9 2,2 5,4 9,4 3,0 6,0 8,-2 2,-1 4,-3 4,-5 0,-1 0,-3 -1,-4 -1,-1 -2,-2 -4,-3 -1,0 -4,-1 -9,-3 -6,-2 -11,-5 -13,-7 -3,-4 -5,-8 -4,-13 0,-3 1,-5 3,-8 2,-2 5,-4 8,-5 4,-1 8,-1 12,-1 7,1 13,3 16,7 4,3 5,8 5,13l-12 0c0,-4 -1,-6 -3,-7 -1,-2 -4,-3 -7,-3 -4,0 -6,0 -8,1 -2,1 -3,2 -3,4 0,1 1,2 2,3 1,2 5,4 10,5 6,2 10,4 13,6 2,2 4,4 5,7 2,2 2,6 2,9 -1,4 -2,7 -4,9 -2,3 -5,5 -9,6 -3,1 -8,2 -13,1 -7,-1 -13,-3 -16,-7 -4,-4 -6,-9 -6,-16z"/>
   <path class="fil5" d="M4074 5861l12 -2 5 32c1,5 1,8 2,10 1,2 2,4 4,5 3,1 5,1 9,1 3,-1 5,-2 7,-4 1,-1 2,-3 2,-5 0,-2 0,-5 -1,-10l-5 -32 11 -2 5 30c2,7 2,12 2,15 0,3 -1,6 -2,8 -2,3 -4,4 -6,6 -3,2 -7,3 -11,4 -6,1 -10,1 -13,0 -3,-1 -6,-2 -8,-4 -2,-2 -3,-4 -4,-6 -2,-3 -3,-8 -4,-15l-5 -31z"/>
   <polygon class="fil5" points="4151,5906 4142,5847 4159,5845 4176,5883 4180,5842 4198,5839 4207,5897 4196,5899 4189,5853 4185,5901 4173,5902 4155,5858 4162,5904 "/>
   <polygon class="fil5" points="4229,5892 4231,5833 4274,5834 4274,5844 4242,5843 4242,5856 4271,5857 4271,5867 4242,5866 4241,5882 4274,5884 4274,5893 "/>
   <polygon class="fil5" points="4297,5897 4312,5840 4324,5843 4317,5869 4347,5850 4362,5854 4335,5870 4348,5911 4333,5907 4325,5876 4313,5883 4308,5900 "/>
   <path class="fil5" d="M4420 5924l-13 -2 -2 -14 -24 -4 -7 12 -12 -2 33 -54 12 2 13 62zm-17 -27l-5 -23 -11 21 16 2z"/>
   <path class="fil5" d="M4440 5923l-4 -58 25 -2c6,-1 11,0 14,0 2,1 5,3 7,6 2,2 3,5 3,9 0,4 -1,8 -3,11 -2,3 -6,5 -11,6 2,1 5,3 6,5 2,1 5,4 8,9l8 11 -14 1 -10 -13c-3,-4 -6,-7 -7,-8 -1,-1 -2,-2 -4,-2 -1,0 -3,0 -6,0l-2 0 2 25 -12 0zm9 -34l9 -1c6,0 9,-1 11,-1 1,-1 2,-2 3,-3 1,-1 1,-3 1,-5 0,-2 -1,-3 -2,-4 -1,-2 -3,-2 -5,-2 -1,0 -4,0 -8,0l-10 1 1 15z"/>
   <path class="fil6" d="M4045 5457c-45,7 -91,-5 -138,-21 2,14 5,27 10,36 0,1 0,2 0,2 9,18 22,27 44,24l3 0 0 3 1 67 0 2 -2 0c-14,2 -27,-2 -39,-10 -12,-7 -23,-17 -34,-30 -14,-15 -22,-26 -27,-38 -5,-13 -8,-26 -11,-45 -1,-7 -3,-14 -5,-21 -3,-5 -6,-11 -11,-15 -5,2 -9,5 -13,10 -3,7 -6,16 -7,28l0 0c0,9 0,17 -1,24 0,7 0,13 0,18 0,15 3,24 19,35 5,3 12,7 20,12l3 1 -1 3 -33 61 -2 3 -2 -3 -4 -2c-6,-6 -12,-11 -18,-17 -1,0 -2,0 -2,0 -1,-1 -1,-2 -1,-2 -5,-6 -10,-11 -15,-18 -15,-19 -18,-46 -16,-74 0,0 0,0 0,-1 0,-5 1,-11 2,-17l0 0 0 0 0 0c0,-5 1,-10 2,-16 0,0 0,0 0,0 1,-6 2,-12 3,-17l0 0 0 0c2,-10 5,-20 7,-29l0 0 0 0c1,-4 2,-7 3,-11l0 -2c1,-4 2,-8 3,-11 5,-21 6,-27 34,-30 4,0 9,-1 14,-1 1,-2 1,-3 2,-5 3,-4 6,-8 10,-10 4,-3 8,-4 13,-5 7,0 15,2 23,7l0 0c8,4 18,8 34,9 15,1 35,0 64,-4 -11,-20 -1,-44 9,-68 9,-20 17,-39 14,-57 -52,1 -64,-17 -65,-38 0,-8 1,-17 3,-25 1,-8 2,-15 1,-19 -1,-6 -4,-11 -7,-15 -5,-8 -10,-16 -8,-34l0 0c1,-3 1,-6 2,-9l0 0 0 0 0 0 0 0 0 0 0 0 0 0 0 0 -1 0 0 0 0 0 0 0 0 0 0 0 0 0 0 0 0 0 0 0 0 0 0 0 0 0 0 0 0 0 0 0 -1 0 0 0 0 0 0 0 0 0 0 0 0 0 0 0 0 0 0 0 0 0 0 0 0 0 0 0 0 0 -1 0 0 0 0 0 0 0 0 0 0 0 0 0 0 0 0 0 0 0 0 0 0 0 0 0 0 0 0 0 0 0 -1 0 0 0 0 0 0 0 0 0 0 0 0 0 0 0 0 0 0 0 0 0 0 0 0 0 0 0 0 0 -1 0 0 0 0 0 0 0 0 0 0 0 0 0 0 0 0 0 0 0 0 0 0 0 0 0 0 0 -1 0 0 0 0 0 0 1 0 0 0 0 0 0 0 0 0 0 0 0 0 0 0 0 0 0 0 0 0 0 -1 0 0 0 0 0 0 0 0 0 0 0 0 0 0 0 0 0 0 0c-4,1 -8,4 -12,7l-4 3 0 -5c-2,-13 0,-25 2,-34l0 -1 0 0 1 0 0 0 0 -1 0 0 0 0 0 0 0 -1 0 0 0 0 0 0 0 0 0 -1 0 0 0 0 1 0 0 0 0 -1 0 0 0 0 0 0 0 0 0 -1 0 0 0 0 0 0 0 -1 0 0 0 0 0 0 1 -1 0 0 0 0 0 0 0 0 0 0 0 -1 0 0 0 0 0 0 0 -1 0 0 1 0 0 0 0 0 0 0 0 -1 0 0 0 0 0 0 0 0 0 -1 0 0 0 0 1 0 0 0 0 -1 0 0 0 0 0 0 0 0 0 -1 0 0 0 0 0 0 1 -1 0 0 0 0 0 0 0 0 0 0 0 -1 0 0 0 0 0 0 0 0 0 0 1 -1 0 0 0 0 0 0 0 -1 0 0 0 0 0 0 0 0 0 0 1 -1 0 0 0 0 0 0 0 0 0 -1 0 0 0 0 0 0 0 0 0 0 1 -1 0 0 0 0 0 0 0 -1 0 0 0 0 0 0 0 0 0 0 1 -1 0 0 0 0 0 0 0 0 0 0 0 -1 0 0 0 0 0 0 1 0 0 -1 0 0 0 0 0 0 -23 -42 -3 -5 5 1 3 1c14,2 28,4 40,14l0 0 0 -1 0 0 0 0 1 0 0 0 0 0 0 0 0 0 0 0 0 -1 0 0 0 0 0 0 1 0 0 0 0 0 0 -1 0 0 0 0 0 0 0 0 0 0 0 0 1 0 0 0 0 -1 0 0 0 0 0 0 0 0 0 0 0 0 1 0 0 0 0 0 0 -1 0 0 0 0 0 0 0 0 0 0 1 0 0 0 0 -1 0 0 0 0 0 0 0 0 0 0 0 0 1 0 0 0 0 0 0 -1 0 0 0 0 0 0 0 0 1 0 0 0 0 0 0 0 0 -1 0 0 0 0 1 0 0 0 0 0 0 0 0 0 0 0 0 0 0 0 1 -1 0 0 0 0 0 0 0 0 0 0 0 0 0 0 1 0 0 0 0 0 0 -1 0 0 0 0 0 0 1 0 0 0 0 0 0 0 0 0 0 0 0 0 0 0 1 0 0 -1 0 0 0 0 0 0 0 0 0 0 1 0 0 0 0 0 0 0 0 0 0 0 0 0 1 0 0 -1 0 0 0 0 0 0 1 0c6,-3 13,-4 23,-2 4,-8 10,-12 17,-13l0 0 0 0 1 0 0 0 0 0 0 0 0 0 1 0 0 0 0 0 0 0 0 0 0 0 0 0 0 0 1 0 0 0 0 0 0 0 0 0 0 0 1 0 0 0 0 0 0 0 1 0 0 0 0 0 0 0 0 0 0 0 1 0 0 0 0 0 0 0 0 0 1 0 0 0 0 0 0 0 0 0 1 0 0 0 0 0 0 0 0 0 0 0 1 0 0 0 0 0 0 0 0 0 0 0 1 1 0 0 0 0 0 0 1 0 0 0 0 0 0 0 0 0 0 0 1 0 0 0 0 0 0 0 1 0 0 0 0 0 0 0 0 0 0 0 1 0 0 0 0 0 0 1 0 0 1 0 0 0 0 0 0 0 0 0 0 0 1 0 0 0 0 0 0 0 1 0 0 0 0 0 0 0 0 0 1 1 0 0 0 0 0 0 0 0 1 0 0 0 0 0 0 0 0 0 1 0 0 0 0 0 0 0 0 1 1 0 0 0 0 0 0 0 0 0 1 0 0 0 0 0 0 0 0 0 1 0 0 0c6,-14 14,-23 22,-31 1,-1 2,-1 3,-3l3 -3 2 4c4,9 7,20 9,31 2,10 3,22 2,34 6,0 10,3 14,7 -5,-38 10,-89 25,-143 18,-64 37,-132 28,-189l-1 -5 5 2c13,6 24,16 32,30 7,12 13,28 16,46 9,3 15,8 20,14 5,6 7,14 7,24 7,7 12,16 15,25 2,9 2,18 0,29 7,5 13,11 16,18 3,4 5,10 6,15l0 1 2 -3c5,-6 10,-13 15,-19 45,-55 92,-111 117,-196l2 -6 3 5c6,9 11,20 12,33 1,10 0,20 -4,30 7,4 11,10 14,18 3,9 3,19 1,31 6,10 9,20 11,32 2,12 1,25 -1,39 2,10 3,21 2,31 -1,9 -4,19 -9,27 6,8 9,18 10,28 2,10 0,21 -3,34 0,7 0,15 -2,23 -1,7 -5,15 -10,22 3,11 3,20 0,29 -2,8 -8,15 -15,21 2,4 3,9 2,14 0,6 -3,13 -7,21 -1,10 -3,17 -6,23 -3,5 -7,9 -11,12 0,8 -2,16 -6,22 -4,7 -10,13 -17,18 -15,31 -47,43 -80,54 0,7 -2,13 -5,18 -2,4 -5,7 -7,10 39,0 58,15 80,33 9,7 19,15 31,22 49,-3 82,7 104,28 8,-8 17,-16 25,-24 27,-25 54,-50 78,-54l0 0c42,-6 58,24 74,54 3,6 6,11 9,17 7,11 16,24 25,35 8,9 17,18 26,26l0 0 3 2c27,21 54,43 49,138l-5 1c-3,-8 -7,-13 -12,-16 -3,-2 -6,-3 -10,-4 3,8 5,16 6,24 1,9 1,17 -1,24l-5 1c-5,-9 -12,-18 -19,-25 -6,-7 -13,-12 -21,-17 -3,13 -7,23 -12,30 -6,9 -13,15 -21,19l-5 3 1 -5c2,-17 2,-32 0,-45 -1,-10 -3,-19 -6,-27 -1,2 -2,3 -2,5 -2,4 -5,8 -8,12l-3 5 -2 -5c-2,-7 -4,-13 -6,-19 -1,-3 -2,-5 -3,-8 0,6 -1,10 -2,14 -3,7 -7,11 -13,11l-2 -1 0 -1c-5,-16 -16,-29 -26,-42 -6,-9 -12,-17 -17,-25 -7,-12 -11,-24 -13,-37 -2,-13 -1,-26 0,-38 1,-6 1,-12 0,-18 0,-5 -2,-11 -6,-16 -12,-5 -28,10 -45,25 -4,4 -7,7 -11,10 13,30 13,71 4,120 65,76 63,111 60,144 0,10 -1,20 0,31l2 7c0,0 0,0 0,0l9 44c4,3 7,7 7,13 0,6 -2,14 -7,23l0 1 -1 1 -53 16 -2 0 -1 -2c-3,-12 -4,-23 -3,-35 1,-11 3,-21 7,-31l0 0c0,-2 1,-3 1,-5 -1,-12 -3,-23 -5,-34 -3,-15 -6,-29 -7,-47 -3,-46 -35,-57 -80,-72l-6 -2 0 0c-6,-2 -11,-4 -16,-5 -3,-1 -6,-2 -10,-3 4,7 9,14 14,22 6,8 11,16 15,24 10,20 7,31 -3,37 -4,3 -10,5 -16,6 -1,0 -1,0 -1,0 -7,1 -15,2 -22,2 -14,0 -26,0 -36,0 -30,-1 -50,-1 -86,16 -3,4 -4,10 -5,16 -1,6 -1,14 0,22l0 2 -1 1 -59 21 -2 0 -1 -1c-3,-3 -6,-7 -7,-15 -1,-7 0,-16 4,-30l0 0c2,-3 3,-5 5,-8 8,-14 20,-34 34,-50 0,-1 1,-1 1,-1 15,-17 32,-31 50,-32 15,0 28,0 38,1 0,1 1,1 2,1 -3,-2 -6,-4 -8,-7 -6,-7 -16,-14 -27,-23 -23,-17 -51,-39 -61,-67 -6,0 -11,0 -17,0 -10,1 -19,1 -29,2 0,0 0,0 0,0 -5,0 -11,0 -16,0 0,0 0,0 0,0 -10,0 -20,1 -29,1 -1,0 -1,0 -1,0 -30,-1 -55,-3 -70,-10 -1,0 -1,0 -1,0 -1,-1 -2,-1 -2,-1z"/>
   <path class="fil1" d="M4052 5448c-66,10 -135,-21 -204,-46 -13,4 -22,15 -23,41 -1,57 -11,62 39,90 -11,20 -22,40 -32,60 -14,-12 -28,-23 -39,-38 -30,-40 -10,-119 2,-163 7,-28 4,-36 33,-38 79,-7 131,6 196,10 9,28 19,56 28,84z"/>
   <path class="fil4" d="M4053 5451c-59,9 -120,-14 -182,-37 -7,-3 -15,-6 -23,-9 -6,2 -10,5 -14,11 -3,6 -6,15 -6,27l0 0c-1,9 -1,17 -1,23 -2,35 -3,42 38,65l2 1 -1 2 -32 60 -2 3 -2 -2 -3 -3c-13,-10 -26,-21 -36,-36 -30,-40 -11,-117 1,-162l0 -2c1,-5 2,-8 3,-11 4,-21 6,-27 33,-30 54,-5 96,0 138,5 19,2 38,4 58,6l1 0 1 1 29 84 -3 1 1 3zm-180 -42c60,22 119,44 176,37l-27 -79c-20,-2 -38,-4 -56,-6 -42,-5 -84,-9 -138,-5 -23,3 -24,8 -28,26 -1,3 -2,7 -3,11l0 2c-12,44 -31,120 -2,158 10,14 23,25 35,35l1 1 29 -55c-41,-23 -41,-31 -39,-68 1,-7 1,-14 1,-23l0 0c1,-14 4,-23 8,-30 4,-7 10,-11 17,-14l2 0c7,3 16,7 24,10z"/>
   <path class="fil4" d="M3789 5406c-1,-1 0,-3 1,-3 1,-1 3,0 4,1 2,4 5,8 8,11 3,3 7,6 12,8 1,0 2,2 1,3 0,1 -2,2 -3,2 -5,-3 -10,-6 -13,-9 -4,-4 -7,-8 -10,-13zm55 115c0,-1 2,-2 3,-1 1,0 2,2 2,3 -4,10 -9,19 -16,27 -7,10 -15,19 -23,26 -1,1 -3,1 -4,-1 0,-1 0,-2 1,-3 7,-7 15,-16 22,-25 6,-8 11,-17 15,-26zm-35 -1c-1,1 -3,0 -4,-1 0,-1 0,-3 2,-3 3,-2 6,-4 9,-7 3,-2 6,-5 8,-8 1,-2 2,-2 4,-1 1,1 1,2 0,3 -2,4 -5,8 -8,10 -4,3 -7,5 -11,7zm-33 -35c-1,-2 -1,-3 0,-4 1,-1 3,-1 4,1 3,4 6,7 9,10 4,2 8,4 12,5 1,0 2,1 2,3 0,1 -2,2 -3,2 -5,-1 -10,-3 -14,-6 -4,-3 -7,-7 -10,-11zm1 -17c-1,-2 0,-3 1,-4 1,-1 3,0 4,1 3,5 6,9 10,12 4,3 8,6 12,7 2,1 2,2 2,4 -1,1 -2,2 -4,1 -4,-2 -9,-4 -13,-8 -4,-3 -8,-8 -12,-13zm2 -16c0,-1 0,-3 1,-4 1,-1 3,0 4,1 3,5 7,9 11,13 4,3 8,6 13,8 1,0 1,2 1,3 -1,2 -2,2 -4,2 -4,-3 -9,-5 -13,-9 -5,-4 -9,-9 -13,-14zm4 -17c-1,-1 -1,-3 0,-4 2,-1 3,0 4,1 3,5 7,10 11,13 4,3 8,6 12,8 1,1 2,2 1,4 -1,1 -2,2 -3,1 -5,-2 -9,-5 -14,-9 -4,-4 -8,-8 -11,-14zm4 -14c-1,-1 0,-3 1,-3 1,-1 3,-1 4,1 2,5 6,9 9,12 3,3 7,5 11,7 1,0 2,2 1,3 0,1 -2,2 -3,1 -4,-2 -9,-4 -12,-7 -4,-4 -8,-8 -11,-14z"/>
   <path class="fil1" d="M4081 5025c-17,-80 68,-230 51,-338 26,11 40,37 46,74 17,6 27,17 26,36 14,15 20,32 15,54 15,10 21,23 22,38 19,12 19,49 19,49 11,9 12,21 10,34 8,8 9,20 4,36 7,14 6,27 -3,39 6,7 6,16 -2,29 6,11 5,24 -3,38 2,7 2,15 -1,26 2,11 -1,19 -6,26 6,10 5,17 2,24 5,8 5,18 0,29 -1,14 -8,25 -17,33 60,-3 73,29 116,54 116,-7 144,61 123,172 84,99 54,126 59,173 4,16 8,33 12,50 7,6 9,15 0,34 -18,5 -35,10 -52,15 -6,-22 -4,-44 6,-68 -4,-29 -11,-50 -13,-81 -3,-48 -38,-59 -86,-75 -23,-8 -41,-10 -62,-28 -14,-13 -22,-27 -29,-42 -94,-9 -267,22 -274,-19 -21,-19 -66,-34 -133,-51 2,68 12,114 59,108 0,22 1,44 1,66 -26,2 -48,-15 -69,-39 -27,-30 -31,-43 -37,-81 -2,-14 -6,-28 -17,-38 -4,-10 -6,-19 -7,-27 -2,-33 18,-52 47,-36 16,9 40,15 102,6 -26,-36 29,-86 20,-129 -94,4 -55,-57 -59,-79 -4,-19 -22,-20 -13,-58 -7,-3 -15,1 -23,8 -3,-26 5,-43 13,-58 -8,-14 -15,-29 -23,-43 15,3 30,5 42,16 8,-12 20,-18 38,-15 8,-16 22,-15 40,-8 7,-17 16,-26 25,-35 8,19 14,39 11,66 10,-1 15,7 20,15z"/>
   <path class="fil1" d="M4261 5219c32,-11 64,-22 78,-53 14,-10 23,-22 22,-39 9,-6 15,-15 17,-34 8,-15 9,-26 5,-34 15,-13 21,-29 15,-49 10,-15 13,-30 11,-45 7,-24 5,-44 -7,-60 11,-17 12,-37 7,-58 5,-27 2,-50 -10,-69 4,-24 0,-40 -15,-47 11,-24 4,-47 -6,-63 -29,98 -86,158 -137,221 19,12 19,49 19,49 11,9 12,21 10,34 8,8 9,20 4,36 7,14 6,27 -3,39 6,7 6,16 -2,29 6,11 5,24 -3,38 2,7 2,15 -1,26 2,11 -1,19 -6,26 6,10 5,17 2,24 5,8 5,18 0,29l0 0z"/>
   <path class="fil4" d="M4077 5014c-4,-38 10,-88 25,-141 17,-63 36,-130 27,-186l0 -5 4 2c13,6 24,16 32,29 7,13 12,28 16,46 8,3 15,7 19,13 5,7 7,14 7,24 7,8 12,16 14,25 3,8 3,18 1,29 7,5 12,10 16,17 3,6 5,13 6,21 17,11 18,42 18,49 6,4 9,10 10,16 2,6 2,12 1,19 8,8 9,20 4,36 6,13 5,27 -2,39 5,7 4,17 -3,29 6,12 5,24 -3,38 1,4 1,7 1,12 0,4 -1,9 -3,14 1,5 1,10 0,15 -1,4 -3,8 -5,11 3,5 4,9 4,13 0,4 -1,7 -2,11 2,4 3,8 3,13 0,5 -1,11 -3,17 -1,7 -3,13 -6,19 -2,4 -5,7 -7,10 38,0 57,15 79,32 9,7 18,15 30,22 59,-4 96,12 115,43 19,31 21,76 11,131 64,76 61,110 59,142 -1,10 -1,20 0,31l11 50c4,3 6,7 6,13 1,6 -1,13 -6,23l-1 1 -1 0 -51 16 -3 1 -1 -3c-3,-11 -4,-23 -3,-34 1,-12 4,-24 9,-35 -1,-13 -4,-23 -6,-34 -3,-15 -6,-29 -7,-47 -2,-45 -34,-56 -78,-71l-6 -2 0 0c-5,-2 -10,-3 -15,-5 -17,-5 -31,-9 -47,-23 -8,-7 -13,-14 -18,-21 -5,-7 -8,-14 -12,-21 -33,-3 -77,-1 -119,1 -76,3 -149,7 -156,-21 -10,-9 -26,-17 -47,-25 -22,-8 -48,-16 -80,-24 1,33 4,59 12,78 8,18 21,27 43,24l3 0 0 3 2 66 0 2 -3 1c-13,1 -26,-3 -38,-10 -11,-7 -22,-18 -33,-30 -14,-15 -21,-26 -26,-38 -6,-12 -8,-25 -11,-44 -1,-7 -3,-14 -6,-20 -2,-7 -6,-12 -11,-17l-1 -1c-2,-5 -3,-10 -4,-14 -1,-5 -2,-10 -2,-14 -1,-12 1,-22 5,-29 2,-5 6,-8 9,-11 4,-2 9,-4 13,-4 7,-1 15,1 23,6l0 0c8,4 18,8 33,9 15,1 35,1 64,-3 -12,-21 -2,-44 8,-68 8,-19 17,-38 14,-56 -51,1 -63,-17 -64,-37 0,-8 1,-17 2,-25 2,-7 3,-14 2,-19 -1,-6 -4,-10 -7,-15 -5,-9 -11,-18 -6,-42 -2,0 -4,0 -7,1 -4,1 -7,4 -11,7l-4 3 -1 -5c-1,-13 0,-24 3,-34 2,-9 6,-17 10,-24l-23 -42 -2 -4 5 1 3 0c14,2 27,4 39,14 4,-5 8,-9 14,-11 6,-3 14,-4 23,-3 4,-7 10,-11 17,-12 6,-1 14,1 22,4 7,-15 15,-23 22,-31 1,-1 2,-1 4,-3l2 -3 2 4c4,9 7,20 9,31 2,10 3,21 1,33 6,0 11,3 14,7zm30 -140c-16,58 -31,113 -23,150l-5 2 0 0c-5,-7 -9,-14 -18,-14l-3 1 0 -4c1,-12 1,-24 -1,-35 -2,-9 -4,-17 -7,-26l-1 1c-8,8 -16,16 -22,32l-1 2 -2 -1c-9,-4 -16,-6 -22,-5 -6,1 -11,4 -14,11l-1 2 -2 0c-9,-2 -16,-1 -22,1 -5,3 -10,7 -13,12l-2 3 -2 -2c-10,-10 -23,-12 -36,-14l21 38 0 1 0 1c-5,8 -9,15 -11,24 -2,8 -3,17 -3,28 3,-2 6,-4 9,-5 5,-2 9,-2 13,0l3 1 -1 2c-6,24 -1,32 5,41 3,4 6,9 7,16 1,6 0,13 -1,21 -2,8 -3,16 -3,24 1,18 12,33 61,31l2 0 1 2c4,20 -5,42 -14,62 -10,24 -20,48 -7,66l3 4 -5 0c-31,5 -52,6 -69,4 -16,-1 -26,-5 -34,-10l0 0c-8,-4 -14,-5 -20,-5 -4,0 -8,2 -11,4 -3,2 -5,5 -7,8 -4,7 -6,16 -5,27 0,4 1,8 2,12 1,5 2,9 4,13 6,6 9,12 12,19 3,6 5,13 6,21 3,19 5,31 10,43 5,11 13,22 26,36 10,12 21,22 32,29 10,6 21,10 32,9l-1 -60c-23,2 -37,-9 -46,-28 -8,-20 -12,-49 -13,-83l0 -3 3 1c34,8 62,16 84,24 23,8 40,17 50,27l1 1c5,24 76,21 151,18 43,-2 87,-4 121,-1l2 0 1 2c3,7 7,14 11,21 5,7 10,14 17,20 15,13 29,17 45,22 5,2 11,3 16,5l0 0 6 2c46,16 79,28 82,76 1,17 3,32 6,46 3,11 5,22 6,35l0 1c-5,12 -7,23 -8,34 -1,10 0,20 2,30l48 -14c4,-9 5,-15 5,-20 0,-4 -2,-7 -5,-10l-1 -1 -11 -51 0 0c-2,-11 -1,-22 0,-32 2,-32 5,-65 -59,-139l-1 -1 0 -1c11,-55 9,-100 -9,-129 -19,-29 -54,-44 -111,-41l-2 0c-12,-8 -22,-16 -32,-23 -22,-18 -40,-33 -82,-31l-2 -4c5,-4 8,-8 11,-13 3,-6 5,-11 5,-18l1 -1c2,-5 3,-10 3,-15 0,-4 -1,-8 -4,-12l0 -1 0 -1c2,-3 3,-6 3,-10 -1,-3 -2,-7 -4,-12l-1 -1 1 -2c2,-3 4,-6 5,-10 1,-4 1,-9 0,-14l0 -1c2,-5 3,-10 3,-14 0,-4 -1,-7 -2,-10l0 -1 0 -1c8,-13 10,-25 4,-35l-1 -2 1 -1c7,-12 8,-21 2,-26l-1 -1 1 -2c8,-12 9,-24 2,-37l0 -2c5,-15 4,-26 -3,-33l-1 -1 0 -1c1,-6 2,-12 0,-18 -1,-5 -4,-10 -9,-14l-1 -1 0 -1c0,0 1,-36 -17,-47l-1 0 0 -2c-1,-7 -2,-14 -6,-20 -3,-6 -8,-11 -16,-16l-1 -1 0 -2c3,-10 3,-20 0,-28 -2,-8 -7,-16 -13,-23l-1 -1 0 -1c0,-9 -2,-16 -6,-21 -4,-6 -10,-10 -18,-12l-2 -1 0 -1c-3,-18 -8,-34 -16,-46 -6,-11 -14,-19 -25,-25 7,56 -11,122 -28,183z"/>
   <path class="fil1" d="M4025 4979c-4,24 -5,47 2,67 -9,4 -16,0 -21,-9 -11,10 -10,28 -8,45 -4,0 -9,2 -13,-26 -7,0 -11,8 -13,22 -9,-1 -9,-11 -8,-22 -8,2 -17,11 -26,23 -7,-3 -15,1 -23,8 -3,-26 5,-43 13,-58 7,-9 13,-18 19,-27 8,-12 20,-18 38,-15 8,-16 22,-15 40,-8z"/>
   <path class="fil4" d="M4027 4980c-2,12 -3,23 -3,34 1,11 2,21 6,31l0 2 -2 1c-5,3 -10,3 -14,1 -3,-2 -6,-4 -8,-8 -4,5 -5,10 -6,16 -1,8 0,16 0,25l1 2 -3 0 0 0 0 0c-5,1 -11,2 -15,-25 -2,1 -3,2 -4,4 -2,4 -4,9 -5,15l0 3 -3 0c-5,-1 -8,-5 -9,-10 -1,-3 -1,-7 -1,-11 -2,1 -5,3 -8,6 -4,3 -8,9 -12,15l-2 1 -2 0c-2,-1 -6,-1 -9,0 -4,1 -7,4 -11,7l-4 3 -1 -5c-1,-13 0,-24 3,-34 3,-10 7,-18 11,-25l0 -1 19 -27 0 0c4,-6 10,-11 16,-13 6,-3 14,-4 23,-3 4,-7 10,-11 17,-12 7,-1 16,1 25,5l2 1 -1 2zm-8 34c0,-10 1,-21 3,-33 -8,-3 -15,-5 -20,-4 -6,1 -11,4 -14,11l-1 2 -2 0c-9,-2 -16,-1 -22,1 -5,3 -10,7 -13,12l0 0 -19 27c-5,8 -9,15 -11,24 -2,8 -3,17 -3,28 3,-2 6,-4 9,-5 4,-1 8,-2 11,-1 5,-6 9,-10 13,-14 5,-5 9,-7 14,-8l3 -1 0 4c-1,5 -1,10 0,13 0,2 1,4 3,4 1,-6 2,-10 5,-14 2,-4 6,-6 10,-6l2 0 1 2c2,18 5,22 7,23 -1,-8 -1,-15 0,-22 1,-9 3,-16 9,-22l3 -2 1 3c3,3 5,6 8,8 2,1 5,1 8,0 -3,-9 -5,-19 -5,-30z"/>
   <path class="fil4" d="M4338 5164c1,-1 3,-1 3,1 1,1 1,2 -1,3 -7,5 -16,7 -24,8 -8,1 -17,1 -26,1 -1,0 -2,-2 -2,-3 0,-2 1,-3 2,-3 9,0 17,1 25,0 8,-1 16,-3 23,-7zm44 -434c0,-2 2,-2 3,-2 1,1 2,2 1,4 -12,30 -26,58 -41,84 -15,26 -31,51 -48,74 -1,1 -3,1 -4,0 -1,-1 -1,-2 0,-3 16,-23 32,-48 47,-74 15,-26 29,-53 42,-83zm15 48c0,-2 2,-3 3,-2 2,0 2,2 2,3 -9,23 -22,47 -38,71 -16,24 -34,48 -53,72 -1,2 -3,2 -4,1 -1,-1 -1,-3 0,-4 19,-24 37,-48 53,-72 16,-24 29,-47 37,-69zm10 68c1,-1 2,-2 4,-1 1,1 1,2 1,4 -22,38 -50,68 -78,98 -4,5 -9,10 -14,15 0,1 -2,1 -3,0 -1,-1 -1,-2 0,-3 4,-6 9,-11 14,-16 27,-30 55,-60 76,-97zm-7 57c1,-1 3,-1 4,0 1,1 1,2 0,3 -19,27 -48,56 -76,84l-6 6c-1,1 -3,1 -4,0 -1,-1 -1,-2 0,-3l7 -7c27,-28 56,-57 75,-83zm7 60c1,-1 3,-1 4,0 1,1 1,3 0,4 -25,26 -51,41 -77,56 -4,2 -9,5 -14,8 -1,1 -3,0 -4,-1 0,-1 0,-3 1,-3 4,-3 9,-6 15,-9 25,-15 51,-29 75,-55zm-11 45c1,-1 3,-1 4,0 1,1 1,3 0,4 -12,11 -25,21 -38,30 -13,10 -27,18 -41,27 -1,1 -2,0 -3,-1 -1,-1 -1,-3 1,-3 13,-9 27,-18 40,-27 13,-9 26,-19 37,-30zm-15 49c1,-1 2,-1 3,0 1,1 1,3 0,4 -17,18 -37,26 -57,33 -4,2 -9,4 -13,6 -2,0 -3,0 -4,-2 0,-1 0,-3 2,-3 4,-2 9,-4 13,-5 20,-8 39,-15 56,-33zm-4 34c1,-1 3,-1 3,0 1,2 1,3 0,4 -9,7 -20,12 -32,18 -12,5 -24,10 -37,15 -2,1 -3,0 -4,-2 0,-1 0,-2 2,-3 13,-5 26,-10 37,-15 12,-5 22,-11 31,-17zm-17 33c1,0 3,0 4,1 0,2 0,3 -1,4 -8,5 -17,8 -27,12 -10,3 -20,7 -31,9 -1,1 -3,0 -3,-1 -1,-2 0,-3 2,-4 10,-3 21,-6 30,-9 10,-3 19,-7 26,-12z"/>
   <path class="fil4" d="M4135 5224c27,-27 26,-75 25,-123 -1,-38 -2,-77 11,-107 23,-51 56,-91 89,-133 45,-54 90,-110 115,-193l2 -6 3 5c6,9 11,20 12,32 1,10 0,20 -5,31 7,4 12,10 14,17 3,9 3,19 1,31 6,9 10,19 11,31 2,11 1,24 -1,38 2,11 3,21 2,31 -1,9 -3,18 -9,27 6,8 9,17 10,27 2,10 0,21 -3,33 1,8 0,16 -1,23 -2,8 -5,15 -10,23 3,10 2,19 0,27 -3,8 -8,15 -15,22 2,4 2,8 2,14 -1,5 -3,12 -7,20 -1,10 -3,17 -6,22 -3,5 -7,9 -11,12 0,8 -2,16 -6,22 -4,7 -10,13 -17,18 -14,31 -46,42 -79,53 -16,6 -33,12 -47,20l-2 -4c14,-9 31,-15 48,-21 31,-10 63,-21 76,-51l1 -1c6,-5 12,-10 16,-16 3,-6 5,-13 5,-21l0 -2 1 -1c4,-2 7,-5 10,-10 3,-5 5,-12 6,-21l0 -1c4,-8 6,-14 7,-19 0,-5 -1,-9 -3,-12l-1 -2 2 -2c7,-6 12,-13 15,-20 2,-8 2,-17 -1,-26l0 -1 1 -1c5,-8 8,-15 9,-22 2,-7 2,-14 2,-22l0 -1c3,-11 4,-22 3,-32 -1,-9 -4,-18 -10,-26l-1 -1 1 -2c5,-8 8,-16 9,-26 1,-9 0,-19 -2,-29l0 -1c2,-14 3,-26 1,-37 -2,-11 -5,-21 -11,-30l0 -2c2,-12 2,-21 -1,-29 -2,-7 -6,-13 -13,-16l-3 -1 2 -2c4,-11 6,-21 5,-30 -1,-9 -4,-18 -8,-25 -26,81 -71,136 -115,190 -33,41 -66,81 -88,131 -13,29 -12,67 -11,105 1,49 3,98 -26,127l-4 -4z"/>
   <path class="fil1" d="M4462 5334c35,-30 71,-72 102,-77 46,-8 59,34 79,67 13,22 31,46 50,61 28,22 56,41 51,137 -8,-17 -18,-21 -28,-23 6,20 9,37 6,51 -11,-19 -25,-34 -44,-44 -5,27 -17,42 -32,50 4,-34 0,-59 -8,-78 -3,7 -6,14 -12,23 -4,-13 -8,-25 -13,-37 -1,20 -4,34 -13,33 -8,-25 -30,-44 -43,-67 -12,-22 -15,-47 -11,-72 1,-12 1,-24 -8,-35 -16,-9 -38,18 -59,36 -5,-10 -10,-18 -17,-25z"/>
   <path class="fil4" d="M4460 5332c9,-8 18,-16 27,-25 26,-24 53,-49 77,-53l0 0c40,-7 56,23 72,53 3,5 6,11 9,16 7,12 15,24 25,35 7,9 16,18 25,25l0 0 2 2c27,22 54,43 49,137l-5 1c-3,-8 -7,-13 -12,-16 -3,-2 -6,-4 -10,-4 3,8 5,16 6,23 1,9 1,17 -1,25l-4 0c-6,-9 -12,-17 -19,-25 -6,-6 -13,-12 -21,-16 -3,13 -7,22 -12,30 -6,8 -13,14 -21,19l-4 2 1 -5c2,-17 2,-32 0,-44 -1,-10 -3,-19 -6,-27 -1,2 -2,3 -2,5 -2,4 -5,8 -8,12l-3 5 -2 -5c-1,-7 -3,-13 -6,-19 -1,-3 -1,-5 -2,-7 -1,5 -2,10 -3,13 -2,7 -6,11 -12,11l-2 -1 0 -1c-5,-16 -16,-29 -26,-42 -6,-8 -12,-16 -17,-24 -6,-12 -10,-24 -12,-37 -2,-12 -2,-25 0,-37 1,-6 1,-12 0,-18 -1,-5 -3,-10 -6,-15 -12,-6 -28,9 -44,24 -4,4 -9,8 -13,12 -1,-2 -2,-3 -2,-5 3,-3 7,-7 11,-11 18,-16 36,-32 51,-24l1 0c4,6 6,12 7,19 1,6 1,12 0,18 -1,12 -2,25 0,37 2,12 5,23 12,34 5,8 11,16 17,24 9,13 19,26 25,41 2,0 4,-3 5,-6 2,-6 3,-14 3,-24l5 -1c3,6 5,12 7,18 2,5 3,9 5,14 1,-3 3,-5 4,-8 2,-3 3,-6 4,-10l5 0c4,10 8,21 9,34 2,12 2,25 0,40 6,-4 11,-8 15,-14 5,-8 9,-18 12,-31l0 -4 3 2c10,5 18,11 26,19 5,6 11,12 15,20 1,-5 1,-10 0,-16 -1,-8 -4,-17 -7,-27l-1 -4 4 1c6,0 11,2 16,6 4,2 7,5 9,9 3,-83 -22,-103 -47,-123l-2 -2 0 0c-10,-7 -18,-16 -27,-26 -9,-11 -17,-23 -24,-35 -3,-6 -6,-11 -9,-17 -16,-28 -31,-56 -67,-50l0 0c-23,4 -49,28 -74,52 -9,9 -18,17 -27,25 -1,-2 -3,-3 -4,-4z"/>
   <path class="fil7" d="M4525 5309c20,-16 39,-19 51,4m127 115c17,14 11,33 16,49m-37 -69c0,26 17,24 14,59m-39 -59c20,10 21,30 21,51m-36 -62c3,20 20,25 17,54m-37 -63c-1,19 16,24 14,54m-36 -72c1,26 19,31 20,66m-40 -77c-1,28 18,29 15,65m13 -85c0,-24 -8,-38 -35,-33"/>
   <path class="fil4" d="M4527 5311c-1,1 -3,1 -4,0 -1,-1 -1,-3 1,-4 4,-3 8,-6 12,-8 7,-4 13,-6 20,-5 6,1 12,4 17,10 14,-3 24,0 30,6l0 0 0 0c6,6 8,16 8,29 -1,1 -2,2 -3,2 -2,0 -3,-1 -3,-2 0,-11 -1,-20 -6,-25l0 0c-4,-5 -12,-7 -23,-5 1,1 2,2 3,3 0,1 0,3 -2,4 -1,0 -2,0 -3,-1 -2,-3 -3,-5 -5,-7 -4,-5 -9,-8 -14,-9 -5,0 -11,1 -17,4 -4,2 -7,5 -11,8zm175 119c-2,-1 -2,-2 -1,-3 1,-2 3,-2 4,-1 12,10 13,22 14,34 0,6 1,11 2,17 1,1 0,2 -1,3 -2,0 -3,0 -4,-2 -2,-6 -2,-12 -2,-17 -1,-12 -2,-23 -12,-31zm-22 -22c0,-1 1,-3 2,-3 2,0 3,2 3,3 0,11 3,17 6,22 5,8 9,17 8,38 0,1 -1,2 -3,2 -1,0 -2,-1 -2,-3 1,-19 -3,-27 -7,-34 -4,-7 -7,-13 -7,-25zm-25 2c-1,-1 -1,-2 -1,-4 1,-1 3,-1 4,-1 11,6 16,14 19,24 3,9 4,19 3,30 0,1 -1,2 -3,2 -1,0 -2,-1 -2,-3 0,-10 0,-19 -3,-28 -2,-8 -7,-15 -17,-20zm-16 -13c0,-1 1,-3 2,-3 2,0 3,1 3,2 1,8 5,14 8,19l0 0c6,9 11,18 9,36 0,2 -1,3 -2,3 -2,-1 -3,-2 -3,-3 2,-17 -3,-25 -8,-33l0 0c-4,-6 -8,-12 -9,-21zm-19 -9c0,-1 1,-2 3,-2 1,0 2,1 2,3 0,7 2,12 6,18 4,8 9,17 8,35 0,1 -2,2 -3,2 -1,0 -3,-1 -2,-2 1,-16 -4,-25 -8,-32 -4,-7 -7,-13 -6,-22zm-23 -18c0,-1 2,-2 3,-3 1,0 3,2 3,3 0,11 4,18 8,26 6,10 11,20 12,40 0,1 -2,3 -3,3 -1,0 -3,-2 -3,-3 0,-18 -5,-28 -10,-37 -5,-9 -9,-16 -10,-29zm-20 -11c0,-1 1,-3 3,-3 1,0 2,2 2,3 0,12 4,19 7,26 5,9 10,19 9,40 0,1 -2,2 -3,2 -2,0 -3,-1 -3,-3 2,-19 -3,-28 -7,-37 -4,-8 -8,-15 -8,-28z"/>
   <path class="fil1" d="M4216 5455c13,42 67,69 86,91 9,10 19,7 24,17 -8,-7 -28,-9 -58,-8 -36,1 -69,61 -85,88 -7,26 -4,36 2,42 20,-7 39,-14 58,-21 -2,-17 -1,-31 5,-39 49,-25 68,-16 122,-17 29,-1 57,-4 39,-41 -8,-17 -23,-34 -31,-51 -10,-4 -20,-9 -31,-18 -14,-13 -22,-27 -29,-42 -29,-3 -65,-2 -102,-1z"/>
   <path class="fil4" d="M4220 5458c9,26 35,46 57,63 11,8 21,16 27,23 4,4 8,6 12,8 5,2 9,4 12,10l-4 3c-3,-3 -10,-5 -19,-6 -9,-1 -22,-2 -36,-1 -32,1 -62,50 -79,79 -2,2 -3,5 -5,7 -3,12 -4,21 -3,27 0,5 2,8 4,11l54 -20c-1,-8 -1,-15 0,-21 1,-7 3,-13 6,-18l1 -1c37,-18 57,-18 88,-17 10,0 21,0 35,0 14,0 28,-1 35,-6 8,-5 10,-14 2,-31 -4,-8 -9,-15 -14,-23 -7,-9 -13,-18 -17,-27 -5,-2 -10,-4 -14,-7 -6,-3 -11,-7 -16,-11 -8,-7 -13,-14 -18,-21 -5,-7 -8,-14 -12,-21 -14,-1 -29,-1 -46,-1 -16,0 -33,0 -50,1zm54 67c-23,-18 -52,-40 -61,-69l-1 -3 4 0c18,-1 37,-2 54,-2 17,0 34,1 48,2l2 0 1 2c3,7 7,14 11,21 5,7 10,14 17,20 5,4 10,8 15,11 5,2 10,4 15,6l1 1 1 1c3,9 10,18 16,27 5,8 11,16 14,24 10,20 7,31 -3,37 -9,6 -23,7 -38,7 -14,1 -25,0 -35,0 -30,0 -49,-1 -85,17 -3,3 -4,9 -5,15 0,6 0,13 1,21l0 3 -2 0 -58 21 -1 1 -1 -1c-4,-4 -6,-8 -7,-15 -1,-7 0,-16 3,-30l1 -1c1,-2 3,-4 4,-7 18,-29 49,-80 83,-81 15,-1 28,-1 38,1 1,0 1,0 2,0 -3,-2 -5,-4 -8,-7 -6,-6 -15,-14 -26,-22z"/>
   <path class="fil8" d="M4179 5655c11,-2 22,-4 32,-7 11,-3 21,-7 31,-11l2 5c-10,4 -21,8 -31,11 -11,3 -22,5 -33,7l-1 -5z"/>
   <path class="fil4" d="M4314 5478c1,-1 3,-2 4,-1 1,0 2,2 1,3 -2,4 -4,7 -6,10 -2,4 -4,7 -7,10 -1,1 -2,2 -3,1 -2,-1 -2,-3 -1,-4 2,-3 4,-6 6,-9 2,-4 4,-7 6,-10zm51 110c-1,-1 -1,-3 1,-3 1,-1 3,-1 3,1 2,3 5,7 9,10 4,3 9,5 14,8 2,0 2,2 2,3 -1,1 -2,2 -3,1 -7,-2 -12,-5 -16,-8 -5,-4 -8,-8 -10,-12zm34 -15c1,-1 3,0 3,1 1,1 1,3 0,3 -3,3 -7,4 -11,5 -3,1 -7,0 -12,-1 -1,0 -2,-1 -2,-3 1,-1 2,-2 4,-2 3,1 6,1 9,1 3,-1 6,-2 9,-4zm-11 -12c2,0 3,1 3,2 0,1 -1,3 -2,3 -5,0 -8,2 -10,4 -2,2 -4,4 -6,7 0,1 -2,2 -3,1 -1,-1 -2,-2 -1,-4 2,-3 4,-6 7,-8 3,-3 7,-5 12,-5zm-8 -13c1,-1 2,-1 3,0 1,1 1,2 0,3 -3,3 -6,6 -9,7 -4,2 -7,3 -11,3 -1,1 -3,-1 -3,-2 0,-1 1,-3 3,-3 3,0 6,-1 8,-2 3,-2 6,-4 9,-6zm-15 -15c0,-1 1,-2 3,-2 1,0 2,1 2,2 0,4 -2,8 -4,12 -2,4 -5,7 -9,10 -2,1 -3,1 -4,0 -1,-2 -1,-3 0,-4 4,-3 7,-6 9,-9 1,-3 3,-6 3,-9zm-9 -11c0,-1 2,-2 3,-2 1,0 3,1 2,3 0,5 -1,9 -4,12 -2,4 -5,7 -9,9 -1,1 -3,1 -4,0 -1,-2 0,-3 1,-4 3,-2 6,-5 8,-8 2,-3 3,-6 3,-10zm-14 -13c0,-1 2,-2 3,-2 1,1 2,2 2,3 -1,5 -3,10 -5,13 -3,4 -5,7 -9,9 -1,0 -2,0 -3,-1 -1,-1 -1,-3 1,-4 2,-1 4,-4 6,-7 2,-3 4,-6 5,-11zm-11 -10c0,-1 2,-2 3,-2 2,0 3,2 2,3 -1,5 -2,9 -5,13 -2,3 -5,6 -8,8 -1,1 -3,1 -4,0 -1,-2 0,-3 1,-4 3,-2 5,-4 7,-7 2,-3 3,-7 4,-11zm-10 -8c1,-1 2,-2 3,-2 2,0 3,2 2,3 -1,5 -3,9 -5,12 -2,4 -5,7 -8,9 -1,1 -3,1 -4,0 -1,-1 0,-3 1,-4 3,-2 5,-4 7,-7 2,-3 3,-7 4,-11z"/>
   <path class="fil4" d="M4176 4761c0,-1 1,-2 2,-2 2,0 3,1 3,2 0,25 -10,53 -21,81 -5,14 -10,28 -14,42 0,1 -2,2 -3,1 -2,0 -2,-1 -2,-3 4,-13 9,-27 14,-42 11,-27 21,-55 21,-79zm84 426c1,0 3,0 3,2 1,1 0,3 -1,3l-34 14c-1,1 -2,0 -3,-1 -1,-1 0,-3 1,-3l34 -15zm-3 -23c1,-1 3,-1 4,0 1,1 1,3 0,4 -6,5 -15,7 -24,8 -5,1 -9,2 -13,3 -1,0 -3,-1 -3,-2 0,-1 0,-3 2,-3 4,-1 8,-2 13,-3 8,-1 16,-2 21,-7zm6 -26c1,-1 3,-1 4,0 1,1 1,3 -1,4 -6,5 -15,7 -23,10 -5,0 -9,1 -12,3 -2,0 -3,0 -4,-2 0,-1 1,-3 2,-3 4,-2 8,-3 12,-4 8,-2 16,-3 22,-8zm1 -26c1,-1 3,-1 4,0 1,1 0,3 -1,4 -7,6 -15,8 -23,10 -4,1 -8,2 -12,3 -1,1 -3,0 -3,-1 -1,-1 0,-3 1,-3 4,-2 8,-3 13,-4 7,-2 15,-4 21,-9zm3 -37c1,-1 2,-2 3,-1 2,1 2,2 1,4 -5,7 -15,13 -26,20 -5,3 -10,6 -14,9 -2,1 -3,0 -4,-1 -1,-1 -1,-3 0,-3 5,-4 10,-7 15,-10 10,-6 20,-12 25,-18zm4 -68c1,-2 3,-2 4,-2 1,1 2,3 1,4 -7,14 -19,24 -32,33 -3,3 -6,5 -9,8 -2,1 -3,0 -4,-1 -1,-1 -1,-2 0,-3 4,-3 7,-6 10,-8 12,-9 24,-18 30,-31zm-2 39c1,-1 3,-2 4,-1 1,1 1,3 1,4 -7,10 -16,15 -26,21 -4,3 -9,5 -13,8 -1,1 -3,1 -3,0 -1,-1 -1,-3 0,-4 4,-3 9,-6 14,-9 8,-5 17,-10 23,-19zm-2 -75c1,-1 3,-2 4,-1 1,1 2,2 1,4 -7,12 -16,17 -26,23 -5,3 -10,5 -14,9 -1,1 -3,1 -4,-1 0,-1 0,-2 1,-3 4,-4 9,-7 14,-10 9,-5 19,-10 24,-21zm-10 -34c1,-1 2,-2 4,-2 1,1 2,2 1,4 -4,13 -13,23 -23,32 -4,5 -9,9 -13,14 0,2 -2,2 -3,1 -1,-1 -2,-3 -1,-4 4,-5 9,-10 14,-15 9,-9 17,-18 21,-30zm-41 -86c0,-2 2,-3 3,-3 2,0 3,2 3,3 -2,18 -10,37 -17,55 -4,10 -8,19 -11,28 -1,1 -2,2 -4,1 -1,0 -2,-1 -1,-3 3,-9 7,-18 11,-28 7,-18 15,-36 16,-53zm-14 -54c0,-1 1,-2 3,-2 1,0 2,1 2,2 -1,23 -10,50 -19,76 -4,13 -8,26 -12,39 0,1 -2,2 -3,2 -2,0 -2,-2 -2,-3 3,-13 8,-26 12,-40 9,-26 18,-52 19,-74z"/>
   <path class="fil4" d="M4010 5219c-1,0 -2,-1 -2,-3 -1,-1 0,-3 2,-3 14,-1 15,-21 16,-41 1,-11 1,-21 4,-30 0,0 0,0 0,0 3,-8 7,-14 12,-19 8,-11 16,-22 14,-48 -1,-2 0,-3 2,-3 1,0 3,1 3,2 2,28 -6,40 -15,52 -4,5 -8,11 -11,18 -2,8 -3,18 -4,28 -1,23 -2,45 -21,47z"/>
   <path class="fil4" d="M3990 5347c-1,1 -2,0 -3,-2 0,-1 1,-3 3,-3 9,-1 19,-2 30,0 10,1 21,5 32,11 1,1 2,3 1,4 -1,1 -2,2 -3,1 -11,-6 -21,-9 -31,-11 -10,-1 -20,-1 -29,0z"/>
   <path class="fil4" d="M3910 5348c2,8 3,15 4,22 1,7 1,13 -1,17l-5 -2c2,-3 2,-8 1,-14 -1,-7 -2,-14 -4,-22l5 -1z"/>
   <path class="fil4" d="M3908 5487c-1,1 -2,0 -3,-1 -1,-1 0,-3 1,-3 4,-2 7,-4 9,-7 3,-2 5,-6 7,-9 0,-1 2,-2 3,-2 1,1 2,3 1,4 -1,4 -4,8 -7,11 -3,3 -7,5 -11,7zm-39 -76c-1,0 -3,0 -3,-1 -1,-2 0,-3 1,-4 4,-1 7,-3 9,-6 3,-2 5,-5 7,-10 0,-1 2,-2 3,-1 1,0 2,2 1,3 -1,5 -4,9 -7,12 -3,3 -7,5 -11,7zm8 16c-2,1 -3,1 -4,-1 -1,-1 0,-3 1,-3 4,-2 7,-4 9,-7 3,-2 5,-5 7,-9 0,-1 2,-2 3,-1 2,0 2,2 2,3 -3,4 -5,8 -8,11 -3,3 -7,5 -10,7zm6 19c-2,1 -3,0 -4,-1 0,-2 0,-3 1,-4 4,-2 7,-4 10,-7 2,-2 4,-5 6,-9 1,-1 2,-2 3,-1 2,1 2,2 2,3 -2,5 -4,8 -7,11 -3,3 -7,6 -11,8zm5 15c-1,0 -3,0 -3,-1 -1,-2 -1,-3 1,-4 3,-2 9,-7 14,-12 5,-5 9,-10 11,-13 0,-1 2,-2 3,-1 1,0 2,2 1,3 -2,4 -6,10 -11,15 -6,5 -12,10 -16,13zm6 15c-1,1 -3,0 -3,-1 -1,-1 -1,-3 1,-4 3,-2 8,-6 12,-10 4,-5 8,-9 9,-13 1,-1 2,-2 3,-1 2,0 2,2 2,3 -2,4 -6,10 -10,14 -5,5 -10,10 -14,12z"/>
   <path class="fil4" d="M3945 5490c3,25 2,46 -2,64 -1,0 -3,0 -5,0 4,-19 4,-41 2,-64 2,0 3,0 5,0z"/>
   <path class="fil4" d="M4044 5439c-2,0 -3,-1 -3,-2 0,-2 1,-3 3,-3 11,0 21,-1 30,-2 8,-1 14,-3 17,-5 1,-1 3,-1 4,0 0,2 0,3 -1,4 -4,3 -11,5 -20,6 -8,1 -19,2 -30,2zm-118 -74c1,-1 2,-2 4,-2 1,1 2,2 1,4 -1,3 -1,7 -1,11 0,3 1,8 3,12 1,1 0,3 -1,4 -1,0 -3,0 -3,-2 -3,-5 -4,-10 -4,-14 -1,-5 0,-9 1,-13zm17 1c1,-1 3,-2 4,-1 1,0 2,2 1,3 -1,4 -2,9 -1,13 0,5 2,10 4,14 1,1 1,3 0,3 -2,1 -3,1 -4,0 -3,-5 -5,-11 -5,-16 -1,-6 -1,-11 1,-16zm17 4c1,-2 2,-2 4,-2 1,1 2,2 1,4 -1,2 -2,7 -1,12 0,5 1,11 3,16 1,1 0,3 -1,3 -2,1 -3,0 -4,-1 -2,-6 -3,-12 -3,-18 -1,-6 0,-11 1,-14zm15 5c1,-2 2,-2 4,-2 1,0 2,2 1,3 -1,4 -2,9 -1,14 0,5 1,10 3,14 1,2 0,3 -1,4 -1,0 -3,0 -4,-1 -2,-5 -3,-11 -3,-16 -1,-6 0,-12 1,-16zm16 -1c0,-1 2,-2 3,-2 2,0 2,2 2,3 -1,5 -1,10 -1,14 0,4 1,7 3,9 1,2 0,3 -1,4 -1,1 -3,0 -3,-1 -2,-3 -4,-7 -4,-12 -1,-4 0,-9 1,-15zm19 8c0,-2 1,-3 3,-3 1,0 3,1 3,2 0,5 0,9 -1,13 0,3 0,7 0,11 0,1 -1,3 -2,3 -2,0 -3,-1 -3,-3 -1,-4 0,-8 0,-12 1,-3 1,-7 0,-11zm17 0c0,-1 1,-3 3,-3 1,0 2,1 2,3 1,5 1,10 2,14l0 0c0,4 0,8 1,11 0,2 -1,3 -3,3 -1,0 -3,-1 -3,-3 0,-3 0,-6 0,-11l0 0c-1,-4 -1,-9 -2,-14zm18 7c-1,-1 -1,-2 1,-3 1,-1 2,-1 3,1 2,3 4,7 5,12 0,4 0,10 -2,15 -1,2 -2,2 -4,2 -1,0 -2,-2 -1,-3 1,-5 2,-10 1,-13 0,-4 -1,-8 -3,-11zm14 4c-1,-1 -1,-3 0,-4 1,-1 3,-1 4,0 6,6 7,17 8,25 0,1 0,3 0,4 0,2 -1,3 -3,3 -1,0 -2,-1 -2,-2 -1,-1 -1,-3 -1,-4 0,-8 -1,-17 -6,-22zm17 5c-1,-1 -1,-3 0,-4 1,-1 3,-1 4,0 6,6 7,16 8,25l0 0c0,2 -1,3 -3,3 -1,0 -2,-1 -2,-2l-1 -1c0,-8 -1,-17 -6,-21z"/>
   <path class="fil7" d="M4111 5436c3,10 5,15 13,23m111 -30c2,9 8,17 16,25m-29 -26c2,10 7,18 15,25m-32 -25c4,10 9,19 16,25m-29 -24c3,10 7,19 15,26m-28 -25c2,11 8,19 15,25m-27 -24c0,9 6,18 15,26m-30 -25c1,9 8,18 17,26m-30 -25c1,10 5,17 14,25m-29 -25c0,10 4,16 14,24"/>
   <path class="fil4" d="M4109 5436c-1,-1 0,-3 2,-3 1,0 3,1 3,2 1,5 2,9 4,12 2,3 4,6 8,10 1,1 1,2 0,3 -1,1 -3,1 -4,0 -4,-3 -7,-7 -9,-11 -2,-3 -3,-8 -4,-13zm124 -7c0,-1 0,-3 2,-3 1,0 3,1 3,2 1,4 3,8 5,12 3,4 6,8 10,12 1,1 1,3 0,4 -1,1 -3,1 -4,0 -4,-4 -8,-8 -10,-13 -3,-4 -5,-9 -6,-14zm-14 -1c0,-1 1,-2 2,-3 2,0 3,1 3,2 1,5 3,9 5,13 3,4 6,8 10,11 1,1 1,3 0,4 -1,1 -2,1 -3,0 -5,-3 -8,-8 -11,-12 -3,-4 -5,-9 -6,-15zm-16 1c0,-2 0,-3 2,-4 1,0 3,0 3,2 2,5 4,10 6,14 2,4 5,7 9,10 1,1 1,3 0,4 -1,1 -3,1 -4,0 -4,-3 -7,-7 -9,-12 -3,-4 -5,-9 -7,-14zm-14 1c0,-1 1,-3 2,-3 2,-1 3,0 3,2 2,4 3,9 6,13 2,4 5,7 9,11 1,1 1,2 0,3 -1,2 -2,2 -3,1 -5,-4 -8,-8 -11,-13 -2,-4 -4,-9 -6,-14zm-13 0c0,-1 1,-2 2,-3 2,0 3,1 3,2 2,5 3,10 6,14 3,4 6,7 9,10 1,1 1,3 0,4 -1,1 -2,1 -3,0 -4,-3 -8,-7 -10,-11 -3,-5 -5,-10 -7,-16zm-12 1c0,-1 1,-2 3,-3 1,0 2,2 2,3 0,4 2,8 4,12 3,4 6,8 11,12 1,0 1,2 0,3 -1,1 -2,2 -4,1 -5,-5 -9,-9 -11,-13 -3,-5 -5,-10 -5,-15zm-15 1c0,-2 1,-3 2,-3 2,0 3,1 3,2 1,4 2,9 5,12 3,5 7,9 11,12 1,1 2,3 1,4 -1,1 -3,1 -4,1 -5,-4 -9,-9 -12,-14 -3,-4 -5,-9 -6,-14zm-13 2c0,-2 1,-3 3,-3 1,0 2,1 2,2 1,4 2,8 4,12 2,4 5,7 10,11 1,1 1,3 0,4 -1,1 -3,1 -4,0 -5,-4 -8,-8 -10,-12 -3,-5 -4,-9 -5,-14zm-15 0c0,-2 1,-3 3,-3 1,0 2,1 2,2 0,5 2,8 4,11 2,4 5,7 10,11 1,1 1,2 0,4 -1,1 -2,1 -4,0 -5,-4 -8,-8 -11,-12 -2,-4 -4,-8 -4,-13z"/>
   <path class="fil4" d="M4117 5390c0,-2 2,-3 3,-2 1,0 2,1 2,3 -1,3 -1,6 -1,9 0,3 0,6 0,9 1,1 0,2 -2,3 -1,0 -3,-1 -3,-2 -1,-3 -1,-7 -1,-10 1,-3 1,-7 2,-10zm63 9c1,-1 3,-1 4,0 1,1 1,3 0,4 -2,1 -3,4 -4,7 0,2 -1,6 -1,10 0,1 -1,2 -3,2 -1,0 -2,-1 -2,-3 0,-4 0,-8 1,-11 1,-3 3,-6 5,-9zm-20 -4c0,-1 2,-2 3,-1 1,0 2,2 2,3 -1,3 -2,6 -2,9 0,3 0,6 2,8 0,2 0,3 -2,4 -1,0 -3,0 -3,-2 -2,-3 -2,-6 -2,-10 0,-4 0,-7 2,-11zm-23 -5c1,-1 2,-2 3,-2 2,0 3,2 2,3 0,4 -1,8 -1,12 0,3 1,7 2,10 1,1 0,3 -1,3 -1,1 -3,0 -4,-1 -2,-4 -2,-8 -2,-12 0,-4 0,-9 1,-13z"/>
   <path class="fil7" d="M4081 5025c8,3 15,8 20,15 -2,7 -9,5 -13,12 10,-1 18,3 27,8 -2,7 -9,6 -13,12 10,0 18,3 25,9 -3,6 -9,8 -13,12 10,1 18,6 26,15 -2,4 -7,3 -9,9 5,-1 10,1 14,8 -2,8 -6,9 -6,19 11,1 16,7 21,12"/>
   <path class="fil4" d="M4080 5027c-1,-1 -2,-2 -1,-4 1,-1 2,-1 4,-1 3,2 7,4 11,7 3,3 7,6 10,10 0,0 0,1 0,2l0 0c-2,4 -5,6 -8,7 0,1 -1,1 -1,1 3,0 5,1 8,2 4,2 9,4 13,7 1,1 1,2 1,3l0 0c-1,5 -4,6 -7,8 -1,1 -1,1 -1,1 2,0 5,1 7,2 5,1 9,4 13,7 1,1 1,2 0,3 -2,5 -5,7 -9,9 3,1 6,3 9,4 5,3 9,7 13,11 0,1 0,2 0,3l0 0c-1,2 -3,3 -5,5 0,0 -1,0 -1,0 1,1 3,1 4,2 3,1 5,4 7,8 0,1 0,1 0,2l0 0c0,3 -2,6 -3,8 -1,2 -2,4 -2,8 9,1 13,6 18,10l0 0c1,1 2,2 2,2 1,1 1,3 0,4 -1,1 -2,1 -4,0 -1,-1 -1,-2 -2,-2l0 0 0 0c-4,-4 -9,-9 -17,-9l0 0c-1,0 -2,-1 -2,-3 -1,-6 1,-9 3,-13 1,-1 1,-3 2,-5 -1,-3 -3,-5 -5,-6 -2,-1 -4,-1 -6,-1l0 0c-1,0 -1,0 -2,0 -1,-1 -1,-2 -1,-3 2,-4 4,-6 6,-7 1,0 2,-1 2,-1 -3,-3 -6,-6 -10,-8 -4,-3 -8,-4 -13,-5l0 0c0,0 -1,0 -1,-1 -1,-1 -1,-3 0,-3 2,-2 3,-3 5,-4 2,-1 5,-3 7,-5 -3,-3 -6,-4 -9,-5 -4,-2 -8,-2 -13,-2l0 0c0,0 -1,0 -2,0 -1,-1 -1,-3 0,-4 2,-3 5,-5 7,-6 2,-1 4,-2 4,-4 -3,-2 -6,-4 -10,-5 -4,-1 -8,-2 -12,-2 -1,0 -1,0 -2,0 -1,-1 -2,-2 -1,-3 2,-4 5,-6 8,-7 2,-1 3,-2 4,-3 -2,-3 -5,-6 -7,-8 -4,-2 -7,-4 -11,-6z"/>
   <path class="fil4" d="M4205 5202c0,-1 1,-2 3,-2 1,-1 2,1 2,2 1,7 -1,13 -3,20 -3,6 -7,13 -12,19 -1,1 -3,1 -4,0 -1,0 -1,-2 0,-3 4,-6 8,-12 11,-18 2,-6 4,-12 3,-18zm-9 -33c0,-1 1,-2 3,-2 1,0 2,1 2,3 0,8 -2,16 -5,24 -3,8 -8,15 -13,22 -1,1 -2,1 -3,0 -2,-1 -2,-2 -1,-4 5,-6 9,-13 12,-20 3,-7 5,-14 5,-23z"/>
   <path class="fil4" d="M4025 5330c0,1 -1,2 -2,3 -2,0 -3,-1 -3,-2 -5,-27 0,-44 5,-61 4,-12 7,-24 7,-40 0,-1 2,-3 3,-3 1,0 2,1 2,2l0 0c6,10 12,13 18,17 5,2 9,5 13,9 1,1 1,3 0,4 -1,1 -3,1 -4,0 -3,-4 -7,-6 -11,-9 -6,-3 -11,-6 -16,-12 -1,13 -4,24 -7,34 -5,16 -9,32 -5,58zm28 -2c2,1 2,2 2,4 -1,1 -3,1 -4,1 -4,-2 -8,-4 -11,-7 -4,-2 -7,-4 -11,-7 -1,-1 -1,-3 0,-4 1,-1 3,-1 4,0 3,2 6,5 10,7 3,2 7,4 10,6zm3 -20c1,1 1,2 1,4 -1,1 -2,2 -3,1 -6,-2 -10,-4 -13,-6 -4,-2 -6,-4 -9,-6 -1,-1 -1,-3 0,-4 1,-1 3,-1 4,0 2,1 4,3 7,5 4,2 7,4 13,6zm7 -17c2,-1 3,0 3,2 1,1 0,3 -2,3 -6,1 -11,0 -16,-2 -4,-2 -8,-6 -12,-9 -1,-1 -2,-3 -1,-4 1,-1 3,-1 4,0 4,3 7,6 11,8 4,1 9,2 13,2zm3 -15c1,0 2,2 1,3 0,1 -2,2 -3,1 -7,-3 -12,-6 -15,-8 -4,-3 -7,-6 -9,-9 -1,-1 -1,-3 0,-4 1,-1 3,-1 4,1 2,2 4,5 8,7 3,3 8,6 14,9z"/>
   <path class="fil8" d="M4278 5421c-1,0 -2,-1 -2,-3 0,-1 1,-2 3,-2 28,2 36,25 40,36 1,1 1,2 2,3 0,1 0,2 -2,3 -1,1 -3,0 -3,-1 -1,-1 -1,-2 -2,-4 -3,-9 -11,-30 -36,-32z"/>
   <g>
    <path class="fil4" d="M4302 5416c-2,0 -3,-2 -2,-3 0,-2 2,-2 3,-2 4,1 8,2 11,2 4,0 7,0 10,-1 2,0 3,1 4,2 0,1 -1,3 -2,3 -4,1 -8,2 -12,1 -4,0 -8,-1 -12,-2zm198 309c-1,1 -2,0 -3,-2 0,-1 1,-3 3,-3 15,-2 25,-5 33,-8 8,-4 14,-8 19,-12 1,-1 3,0 4,1 1,1 1,3 0,3 -6,5 -12,9 -21,12 -8,4 -19,7 -35,9zm5 -36c-2,0 -2,-2 -2,-3 1,-2 3,-2 4,-2 6,4 12,4 18,3 2,0 4,0 5,1 2,0 3,1 3,2 0,2 -1,3 -3,3 -2,0 -3,0 -5,0 -6,0 -13,0 -20,-4zm22 -8c-2,0 -3,-1 -3,-3 0,-1 1,-2 2,-3 5,0 9,-2 13,-4 2,-1 4,-3 6,-4 1,0 3,0 4,2 0,1 -1,3 -2,3 -2,1 -4,2 -6,3 -4,3 -8,5 -14,6zm-2 -15c-1,0 -2,-1 -2,-2 -1,-1 0,-3 2,-3 6,0 10,-2 15,-4 1,-1 2,-1 3,-2 1,0 3,0 3,2 1,1 0,2 -1,3 -1,0 -2,1 -3,1 -5,3 -10,5 -17,5zm1 -13c-1,1 -3,0 -3,-1 -1,-2 0,-3 1,-4l17 -7c1,-1 3,0 3,1 1,2 0,3 -1,4l-17 7zm-5 -13c-1,0 -2,-1 -2,-3 -1,-1 1,-3 2,-3 5,0 9,-2 12,-5 3,-1 5,-2 7,-3 1,0 3,0 3,2 1,1 0,2 -1,3 -2,1 -4,2 -6,3 -4,2 -8,5 -15,6zm-1 -13c-2,0 -3,-1 -4,-2 0,-1 1,-3 3,-3 6,-1 14,-6 20,-8 1,-1 2,-1 3,-2 1,0 3,0 3,1 1,2 0,3 -1,4 -1,0 -2,1 -3,1 -5,3 -14,8 -21,9zm-10 -21c-2,0 -3,-2 -2,-3 0,-2 1,-2 3,-2 4,1 8,2 10,4l0 -1c4,2 6,3 9,2 1,-1 3,0 3,1 1,2 0,3 -1,4 -5,2 -8,0 -13,-2l0 0 0 0c-2,-1 -5,-2 -9,-3zm0 -12c-1,1 -3,1 -4,-1 0,-1 0,-2 1,-3 4,-3 9,-3 14,-4 2,0 4,0 7,-1 1,0 2,1 3,2 0,1 -1,3 -2,3 -3,1 -5,1 -8,1 -4,1 -8,2 -11,3zm-11 -8c-1,2 -3,2 -4,1 -1,-1 -2,-3 -1,-4 8,-10 14,-10 21,-9l0 0 1 0c2,0 3,1 3,2 0,2 -2,3 -3,3l-1 0 0 0c-5,0 -11,0 -16,7zm16 -7l0 0 0 0zm-20 -5c-1,1 -3,1 -4,0 -1,-1 -1,-2 0,-3 2,-4 6,-6 10,-8l0 0c3,-1 7,-1 11,-2 1,0 3,1 3,3 0,1 -1,2 -3,2 -3,1 -6,1 -9,2l-1 0c-2,1 -5,3 -7,6zm-13 -11c-1,1 -3,0 -3,-1 -1,-1 -1,-3 1,-3 3,-2 6,-4 9,-5 4,-2 7,-3 11,-4 1,0 3,0 3,2 1,1 0,3 -2,3 -3,1 -6,2 -9,3 -4,2 -7,3 -10,5zm-8 -9c-1,1 -3,2 -4,1 -1,-1 -1,-3 0,-4 2,-4 6,-7 9,-8 4,-2 8,-2 13,-1 1,0 2,1 2,3 0,1 -2,2 -3,2 -4,-1 -7,0 -10,1 -2,1 -5,3 -7,6zm-9 -6c0,1 -2,2 -3,2 -2,-1 -2,-2 -2,-3 2,-6 4,-9 7,-12l1 0c3,-3 6,-4 10,-6 1,0 3,1 3,2 1,1 0,3 -1,3 -3,1 -7,3 -9,5l0 0c-3,2 -5,5 -6,9zm-30 -17c-2,0 -3,-2 -2,-3 0,-1 1,-2 3,-2 7,1 13,1 18,0 5,0 9,-2 12,-4 1,-1 2,0 3,1 1,1 1,3 0,3 -4,3 -9,5 -14,6 -6,0 -12,0 -20,-1zm-15 -9c-2,0 -3,-1 -3,-3 0,-1 1,-2 3,-2 7,0 13,0 18,-1 5,0 9,-1 13,-3 1,-1 2,0 3,1 1,2 0,3 -1,4 -4,2 -9,3 -14,4 -6,0 -12,1 -19,0zm-19 -8c-1,-1 -2,-2 -2,-3 1,-2 2,-3 3,-2 7,1 13,1 17,0 5,-1 10,-2 14,-4 1,0 3,0 3,2 1,1 0,3 -1,3 -5,2 -9,3 -15,4 -5,1 -11,1 -19,0zm-16 -4c-1,1 -2,0 -2,-2 -1,-1 0,-3 2,-3 6,0 12,-1 17,-3 5,-1 9,-3 13,-5 1,-1 3,-1 3,1 1,1 1,3 -1,3 -4,3 -8,5 -14,6 -5,2 -11,3 -18,3zm-6 -7c-1,1 -3,0 -3,-2 0,-1 1,-2 2,-3 6,-1 11,-3 16,-4 5,-2 9,-5 13,-8 1,-1 2,0 3,1 1,1 1,2 0,3 -4,4 -9,6 -14,8 -5,2 -11,4 -17,5zm-19 -20c-2,-1 -2,-3 -2,-4 1,-1 3,-2 4,-1 6,3 12,2 18,1 1,0 2,0 3,0 1,-1 3,0 3,2 0,1 -1,3 -2,3 -1,0 -2,0 -3,0 -7,2 -14,3 -21,-1zm-8 -8c-2,-1 -2,-2 -2,-4 0,-1 2,-2 3,-1 4,1 8,1 11,1 4,1 7,0 11,0 1,-1 3,0 3,2 0,1 -1,3 -2,3 -4,0 -8,1 -12,1 -4,0 -8,-1 -12,-2zm-9 -12c-1,-1 -2,-3 -1,-4 1,-1 2,-2 3,-1 3,2 6,2 9,3 4,0 8,-1 12,-2 1,-1 3,0 3,2 1,1 0,2 -1,3 -5,1 -10,2 -14,2 -4,0 -8,-2 -11,-3zm-9 -10c-1,-1 -2,-2 -2,-4 1,-1 2,-2 4,-2 3,2 7,2 11,2 3,1 7,0 10,-1 1,0 3,1 3,2 0,2 0,3 -2,4 -4,1 -7,1 -12,1 -4,-1 -8,-1 -12,-2zm-10 -18c-1,-1 -2,-2 -1,-4 0,-1 2,-2 3,-1 5,2 9,2 12,3 4,0 6,-1 9,-2 1,-1 2,0 3,1 1,1 0,3 -1,4 -3,1 -7,2 -11,2 -4,0 -8,-1 -14,-3zm-13 -9c-1,0 -2,-1 -2,-3 0,-1 2,-2 3,-2 6,2 11,2 15,3 4,0 8,-1 12,-2 1,0 3,0 3,2 1,1 0,3 -2,3 -3,1 -8,2 -13,2 -5,0 -10,-1 -16,-3z"/>
   </g>
   <path class="fil4" d="M4459 5388c1,-1 3,-1 4,0 1,0 1,2 1,3 -3,4 -6,8 -10,12 -3,3 -7,6 -12,8 -1,1 -3,1 -4,-1 0,-1 0,-3 1,-3 5,-2 8,-5 12,-8 3,-3 6,-7 8,-11zm-10 42c-1,0 -2,0 -3,-1 0,-1 0,-2 0,-2 -1,0 -3,0 -4,-1 0,-1 0,-3 1,-4 3,-2 6,-4 8,-6 2,-2 4,-4 5,-6 0,0 0,1 -1,1 -3,3 -6,5 -9,6 -2,1 -3,0 -4,-1 0,-1 0,-3 2,-4 2,-1 5,-3 8,-5 2,-2 4,-5 6,-8 1,-1 3,-2 4,-1 1,1 2,2 1,4 -1,1 -2,3 -3,5 0,-1 1,0 1,0 1,0 2,2 1,3 -2,4 -4,7 -7,10 -1,1 -3,2 -4,3 1,0 2,-1 3,-2 2,-1 4,-3 6,-6 1,-1 2,-2 4,-1 1,1 1,3 0,4 -2,3 -4,5 -7,7 -2,2 -5,4 -8,5zm5 43c-1,0 -3,0 -3,-2 -1,-1 0,-3 1,-3 2,-1 4,-2 5,-3 1,-1 2,-2 2,-3 -1,1 -3,2 -4,2 -2,1 -3,0 -4,-1 0,-2 1,-3 2,-4 2,0 4,-1 5,-2 1,-1 1,-2 2,-2 -2,1 -5,2 -7,2 -2,0 -3,-1 -3,-2 0,-2 1,-3 2,-3 2,0 4,-1 5,-2l0 0c1,-1 2,-2 3,-3 -2,1 -4,2 -6,3 -2,1 -3,0 -4,-2 0,-1 1,-2 2,-3 2,-1 4,-1 6,-2 1,-1 2,-2 3,-3 0,-1 0,-1 0,-1 -3,2 -6,3 -9,3 -1,0 -3,-1 -3,-2 0,-2 1,-3 3,-3 2,0 4,-1 7,-2 2,-2 4,-4 6,-6 0,-1 2,-1 3,0 1,1 2,2 1,3 -2,3 -4,5 -6,6 0,0 1,0 1,0 2,1 2,3 2,4 -1,1 -2,2 -3,3 1,0 1,0 2,1 1,0 1,2 0,3 0,1 0,1 -1,2 0,0 1,0 1,0 1,1 2,2 1,4 -1,1 -2,2 -2,3 1,1 2,2 1,4 -1,3 -2,5 -4,7 -2,1 -4,3 -7,4zm-1 -38c-2,1 -3,0 -3,-1 -1,-2 0,-3 1,-4 3,0 5,-1 7,-3 1,-1 3,-3 4,-5 0,-1 2,-1 3,-1 1,1 2,3 1,4 -1,2 -3,5 -5,6 -2,2 -5,3 -8,4z"/>
   <path class="fil4" d="M4342 5351c1,-1 2,-1 3,-1 0,1 1,2 0,3 -3,3 -3,7 -1,10 0,1 0,2 -1,3 -1,0 -2,0 -2,-1 -3,-5 -3,-10 1,-14zm2 -13c-1,0 -1,-1 -1,-2 1,-1 2,-1 3,-1 3,2 6,4 8,6 3,2 4,5 5,9 1,1 0,2 -1,2 -1,0 -2,0 -2,-1 -1,-3 -2,-5 -4,-7 -3,-2 -5,-4 -8,-6zm9 -7c-1,0 -1,-2 0,-2 0,-1 2,-1 2,-1 5,4 10,8 14,12l0 0c4,4 7,8 9,12 1,1 1,2 0,3 -1,0 -2,0 -3,-1 -2,-4 -5,-8 -9,-12l0 0 0 0c-4,-3 -8,-7 -13,-11zm18 7c-1,0 -1,-1 -1,-2 1,-1 2,-1 3,-1 3,2 6,4 9,6 3,2 5,5 6,8 1,1 1,2 0,3 -1,0 -2,0 -3,-1 -1,-3 -3,-5 -5,-7 -3,-2 -6,-4 -9,-6zm11 -7c-1,-1 -1,-2 -1,-3 1,0 2,-1 3,0 4,2 7,5 10,8 3,3 5,7 8,10 0,1 0,2 -1,3 -1,0 -2,0 -3,-1 -2,-3 -4,-6 -7,-9 -3,-3 -6,-6 -9,-8zm20 6c-1,-1 -1,-2 -1,-3 1,-1 2,-1 3,-1 2,1 4,3 6,5 2,1 4,4 5,6 1,1 0,2 -1,3 0,0 -2,0 -2,-1 -1,-2 -3,-4 -4,-6 -2,-1 -4,-3 -6,-3zm18 10c0,0 0,-2 1,-2 1,-1 2,0 3,1 2,4 4,7 7,9 2,2 5,3 8,3 1,0 1,0 1,2 0,1 0,1 -1,1 -4,1 -7,-1 -10,-3 -3,-2 -6,-6 -9,-11zm2 15c-1,-1 -1,-2 0,-2 1,-1 2,-1 3,0 2,3 4,5 6,7l0 0c1,1 3,1 4,1 1,0 2,1 2,2 0,1 0,2 -1,2 -3,0 -5,-1 -8,-2l0 -1c-2,-1 -4,-4 -6,-7zm-2 11c0,0 0,-2 1,-2 1,-1 2,-1 2,0 2,3 4,5 6,7 2,1 4,2 6,2 1,0 2,0 2,1 0,1 -1,2 -2,2 -3,0 -5,-1 -8,-2 -2,-2 -5,-4 -7,-8zm-5 11c0,-1 1,-2 2,-2 0,-1 2,0 2,1 0,2 2,4 3,5l0 0c2,1 4,2 7,2 1,0 1,1 1,2 0,1 -1,2 -2,2 -3,-1 -6,-2 -8,-3l0 0c-2,-2 -4,-4 -5,-7zm-5 2c0,-1 0,-2 1,-2 1,0 2,1 2,2 1,2 1,4 3,6 1,1 2,2 4,2 1,0 2,1 1,2 0,1 -1,2 -2,2 -3,-1 -5,-2 -6,-4 -2,-2 -3,-5 -3,-8zm-9 7c-1,1 -2,1 -3,0 -1,-1 0,-2 0,-3 2,0 3,-1 4,-2 1,-1 1,-2 2,-3 1,-1 2,-1 3,-1 1,1 1,2 0,3 -1,1 -2,2 -3,3 -1,1 -2,2 -3,3zm3 -14c1,1 1,2 1,3 0,1 -1,1 -2,1 -3,-1 -5,-1 -7,-1l0 0c-2,0 -3,1 -5,2 -1,0 -2,0 -3,-1 0,-1 0,-2 1,-2 2,-2 4,-2 7,-3l0 0c2,0 5,0 8,1zm-21 4c0,-1 0,-2 1,-2 1,0 2,0 2,1 0,1 1,2 2,3 1,1 2,1 4,2 1,0 2,1 2,2 -1,1 -1,1 -2,1 -3,0 -5,-1 -7,-2 -1,-1 -2,-3 -2,-5zm-10 -6c1,-1 2,-2 3,-1 1,0 1,1 1,2 -1,2 -1,4 -1,5 1,2 2,3 4,4 1,1 1,2 1,3 -1,1 -2,1 -3,0 -2,-1 -4,-3 -5,-5 -1,-3 -1,-5 0,-8zm-10 -3c0,-1 1,-2 2,-2 1,0 2,1 2,2 -1,3 -1,6 0,8 0,2 1,4 2,5 0,1 0,2 -1,3 0,0 -2,0 -2,-1 -1,-2 -2,-4 -3,-7 0,-2 0,-5 0,-8zm-9 -9c0,-1 1,-1 2,-1 1,0 1,1 1,2 -1,3 -1,6 0,8 0,3 1,5 3,7 0,1 0,2 -1,3 -1,1 -2,0 -2,0 -2,-3 -3,-6 -4,-9 0,-3 0,-6 1,-10zm-7 -6c0,-1 1,-2 2,-1 1,0 2,1 2,2 -1,3 -2,6 -2,8 0,3 0,6 1,8 0,1 -1,2 -2,2 -1,0 -2,0 -2,-1 -1,-3 -1,-6 -1,-9 1,-3 1,-6 2,-9z"/>
   <path class="fil7" d="M4057 5107c-1,7 -1,15 -1,25m123 148c-1,24 2,27 3,40m-10 -34c2,10 -1,16 -2,24m11 -53c0,4 0,6 -1,9m-8 -19c3,13 1,20 1,30m-8 -27c2,13 1,23 1,34m-17 -30c3,13 2,21 3,31m5 -32c3,12 1,19 2,28m-6 -73c1,18 -1,29 -1,43m-7 -32c1,12 1,16 1,24m-4 -5c3,21 0,32 1,48m-11 -49c1,16 -1,24 -1,36m-8 -40c0,11 0,18 0,23m-9 -26c2,6 1,15 -1,26m-5 -36c0,9 0,17 0,25m-5 -16c-1,11 -1,18 0,23m-11 -49c-3,8 -2,24 0,40m-7 -57c-2,12 -3,24 0,39m-7 -32c-4,4 -5,12 -1,25m-5 -50c-8,8 -9,20 -7,33m1 -37c-5,5 -7,17 -8,32m2 -40c-4,8 -6,18 -7,32m71 3c-4,9 -2,25 -3,33m9 -12c-2,6 0,10 1,15m-14 -42c-4,7 -3,15 -1,25m-7 -31c0,5 0,10 0,15m-6 -31c-2,4 0,15 0,19m-9 -32c-3,9 -2,22 0,36m-8 -38c-3,1 -3,7 -1,15m-7 -29c-3,2 -2,11 0,20m-5 -32c-4,5 -3,16 -1,27m-7 -31c-4,4 -3,11 -1,20"/>
   <path class="fil4" d="M4055 5106c0,-1 1,-2 3,-2 1,0 2,1 2,3 0,3 -1,7 -1,11 0,5 0,9 0,14 0,1 -1,2 -3,2 -1,0 -3,-1 -3,-2 1,-5 1,-10 1,-14 0,-4 0,-8 1,-12zm121 174c0,-1 2,-3 3,-2 1,0 3,1 3,2 -1,16 0,22 1,29 1,3 1,7 2,11 0,2 -1,3 -3,3 -1,0 -2,-1 -3,-2 0,-5 0,-8 -1,-11 -1,-7 -2,-14 -2,-30zm-7 6c0,-1 1,-3 3,-3 1,0 2,1 3,2 1,8 0,13 -1,18 -1,2 -1,5 -1,7 -1,2 -2,3 -3,3 -2,0 -3,-2 -3,-3 1,-3 1,-5 2,-8 1,-5 2,-9 0,-16zm9 -29c0,-2 1,-3 3,-3 1,0 2,1 2,3l0 9c0,1 -1,2 -3,2 -1,0 -2,-1 -2,-2l0 -9zm-9 -9c0,-2 1,-3 3,-3 1,-1 2,0 3,2 1,9 1,15 1,21 0,3 0,6 0,9 0,1 -1,3 -3,3 -1,0 -2,-1 -2,-3 -1,-3 0,-6 0,-9 0,-6 0,-12 -2,-20zm-7 2c0,-1 1,-3 3,-3 1,0 2,1 3,2 1,9 1,17 1,24 -1,4 -1,7 -1,11 0,2 -1,3 -2,3 -2,0 -3,-1 -3,-3 0,-4 0,-7 0,-11 0,-7 1,-14 -1,-23zm-15 5c-1,-2 0,-3 2,-3 0,-1 0,-1 1,-1 0,0 -1,0 -1,0 1,-5 1,-10 1,-14 1,-8 1,-17 0,-29 0,-1 1,-2 3,-2 1,-1 2,0 2,2 1,12 1,21 0,29 0,5 0,9 0,14 0,1 -1,2 -3,2 0,0 0,0 0,0l0 0c2,9 2,16 2,22 0,3 0,6 0,10 0,1 -1,3 -2,3 -2,0 -3,-1 -3,-3 0,-3 0,-6 0,-10l0 0 0 0c0,-6 0,-12 -2,-20zm8 -2c0,-1 0,-2 2,-3 1,0 3,1 3,2 1,9 1,14 1,20 0,3 0,6 0,9 0,1 -1,2 -2,3 -2,0 -3,-2 -3,-3 0,-3 0,-6 0,-9 0,-5 0,-11 -1,-19zm-12 -34c0,-2 1,-3 2,-3 2,0 3,1 3,2l1 25c0,1 -1,2 -2,3 -1,0 -1,-1 -2,-1 1,11 1,18 1,26 -1,5 -1,10 -1,15 0,1 -1,3 -2,3 -2,0 -3,-2 -3,-3 0,-5 0,-10 0,-15 1,-10 1,-19 -1,-33 0,-1 1,-3 2,-3 1,0 2,0 2,1l0 -17zm-13 18c-1,-2 1,-3 2,-3 1,0 3,1 3,3 1,11 0,18 -1,25 0,4 -1,7 -1,11 0,2 -1,3 -3,3 -1,0 -2,-1 -2,-3 0,-4 1,-8 1,-11 1,-7 1,-14 1,-25zm-10 -4c0,-2 1,-3 3,-3 1,0 2,1 2,2 1,6 1,11 1,15 0,4 0,7 0,10 0,1 -2,2 -3,2 -1,0 -3,-1 -2,-3 0,-2 0,-5 0,-9 0,-4 -1,-8 -1,-14zm-8 -2c-1,-2 0,-3 2,-4 1,0 3,1 3,2 1,3 1,7 1,12 0,5 -1,10 -3,15 0,2 -1,3 -3,2 -1,0 -2,-1 -2,-3 2,-5 2,-10 3,-14 0,-4 0,-8 -1,-10zm-6 -11c0,-1 1,-2 2,-2 2,0 3,1 3,2 0,5 0,9 0,13 0,4 0,9 0,13 -1,1 -2,2 -3,2 -2,0 -3,-1 -3,-3 0,-4 1,-8 1,-12 0,-4 0,-8 0,-13zm-6 8c0,-1 1,-2 3,-2 1,0 2,1 2,3 0,6 0,10 0,14 0,3 0,6 0,9 0,2 -1,3 -2,3 -1,0 -3,-1 -3,-3 0,-2 0,-5 0,-9 0,-4 0,-9 0,-15zm-11 -26c1,-1 2,-2 4,-2 1,1 2,2 1,4 -1,3 -1,9 -1,16 0,7 1,14 2,22 0,2 -1,3 -3,3 -1,0 -2,-1 -3,-2 0,-8 -1,-16 -1,-23 -1,-7 0,-13 1,-18zm-6 -16c0,-2 1,-3 3,-2 1,0 2,1 2,3 -1,5 -2,11 -2,17 0,7 0,13 1,21 0,1 -1,2 -2,3 -1,0 -3,-1 -3,-2 -1,-8 -2,-15 -1,-22 0,-6 1,-12 2,-18zm-7 6c1,-1 2,-2 4,-1 1,1 1,3 0,4 -2,2 -3,4 -3,8 0,3 1,8 2,15 1,1 0,2 -1,3 -2,0 -3,-1 -4,-2 -2,-7 -2,-12 -2,-17 0,-4 2,-8 4,-10zm-6 -26c1,-1 3,-1 4,0 1,1 1,3 0,4 -3,4 -6,8 -6,13 -1,5 -1,11 0,17 0,2 -1,3 -2,3 -2,1 -3,0 -3,-2 -1,-7 -2,-13 -1,-19 1,-6 4,-11 8,-16zm-5 -4c1,-1 2,-1 3,0 1,1 1,2 0,3 -2,3 -4,7 -5,12 -1,5 -2,12 -2,19 0,1 -2,3 -3,3 -1,0 -3,-2 -3,-3 1,-8 1,-15 3,-20 1,-6 3,-11 7,-14zm-7 -7c0,-1 2,-2 3,-1 2,1 2,2 1,4 -2,3 -3,7 -4,12 -1,6 -2,12 -2,18 0,2 -1,3 -3,3 -1,0 -2,-1 -2,-3 0,-7 1,-13 2,-19 1,-5 3,-10 5,-14zm63 35c1,-1 3,-2 4,-2 1,1 2,2 1,4 -2,6 -2,15 -2,23 0,3 0,7 0,10 0,1 -2,2 -3,2 -1,0 -3,-1 -2,-3 0,-2 0,-6 0,-9 0,-2 0,-3 0,-4 0,1 -1,1 -2,1 -2,1 -3,0 -3,-2 -1,-4 -2,-9 -2,-14 0,-4 0,-8 2,-12 1,-1 3,-2 4,-1 1,1 2,2 1,3 -1,3 -2,7 -2,10 0,4 1,9 2,13 0,-7 0,-14 2,-19zm6 21c1,-1 2,-2 4,-2 1,1 2,2 1,3 0,4 0,7 1,10 0,2 0,3 0,5 0,2 -1,3 -2,3 -2,0 -3,-1 -3,-3 0,-1 0,-3 -1,-4 0,-4 -1,-8 0,-12zm-20 -32c0,-1 1,-3 2,-3 2,1 3,2 3,3l0 15c-1,2 -2,3 -3,3 -2,0 -3,-2 -3,-3l1 -15zm-6 -17c0,-2 2,-2 3,-2 1,1 2,3 1,4 -1,3 0,9 0,14 0,1 0,3 0,4 1,1 -1,2 -2,3 -2,0 -3,-2 -3,-3 0,-1 0,-2 0,-4 -1,-5 -1,-12 1,-16zm-10 -13c1,-1 2,-2 3,-2 2,0 3,2 2,3 -1,5 -1,10 -1,16 0,6 1,13 2,20 0,1 -1,3 -3,3 -1,0 -2,-1 -3,-2 0,-7 -1,-14 -1,-21 -1,-6 0,-12 1,-17zm-6 -4c2,0 3,1 3,3 1,1 0,2 -2,3 0,0 0,0 0,2 0,2 1,6 1,10 1,1 0,2 -1,3 -2,0 -3,-1 -4,-2 -1,-5 -1,-8 -1,-11 0,-4 1,-7 4,-8zm-8 -13c1,-1 3,-1 4,1 0,1 0,2 -1,3 -1,1 -1,3 -1,6 0,3 1,7 1,12 1,1 0,3 -2,3 -1,0 -3,-1 -3,-2 -1,-5 -1,-10 -1,-13 0,-5 0,-8 3,-10zm-7 -12c1,-1 3,-1 4,0 1,0 2,2 1,3 -2,2 -2,6 -2,10 0,5 0,10 1,16 0,1 -1,2 -2,3 -1,0 -3,-1 -3,-3 -1,-5 -1,-11 -2,-16 0,-5 1,-10 3,-13zm-7 -4c1,-1 3,-1 4,0 1,1 1,3 0,4 -1,1 -2,4 -2,6 0,3 1,7 2,11 0,1 -1,3 -2,3 -1,1 -3,0 -3,-2 -2,-4 -2,-8 -2,-12 0,-4 1,-7 3,-10z"/>
   <path class="fil8" d="M4262 5560c-1,-1 -2,-2 -2,-4 1,-1 2,-2 4,-1 5,1 9,4 11,8 3,5 5,11 5,15 0,1 -1,3 -3,3 -1,0 -2,-1 -2,-3 -1,-3 -2,-8 -4,-12 -2,-3 -5,-5 -9,-6zm47 1c-1,-2 -1,-3 1,-4 1,-1 2,-1 3,0 4,5 4,9 4,14 0,2 0,4 1,5 0,2 -1,3 -2,4 -2,0 -3,-1 -3,-2 -1,-3 -1,-5 -1,-7 0,-4 0,-7 -3,-10zm-23 -3c-1,-1 -1,-3 0,-4 1,-1 3,-1 4,0 7,8 10,17 11,22 1,1 1,2 1,2 1,2 0,3 -2,4 -1,0 -2,0 -3,-2 0,-1 0,-1 -1,-2 -1,-5 -3,-13 -10,-20zm-47 14c-1,0 -2,-1 -2,-3 0,-1 1,-2 2,-2 6,0 10,2 13,5 4,3 6,8 6,12 1,2 0,3 -2,3 -1,1 -3,0 -3,-2 0,-3 -1,-7 -4,-10 -2,-1 -5,-3 -10,-3zm-18 16c-1,0 -2,-1 -2,-2 0,-2 1,-3 2,-3 8,0 14,2 18,4 4,2 7,5 10,8 1,1 1,2 0,3 -1,1 -2,1 -3,0 -3,-2 -6,-5 -9,-6 -4,-2 -9,-3 -16,-4z"/>
   <line class="fil7" x1="3989" y1="5126" x2="3988" y2= "5150" />
   <path class="fil4" d="M3986 5126c0,-2 1,-3 3,-3 1,0 2,2 2,3l0 24c0,1 -1,3 -3,3 -1,0 -2,-2 -2,-3l0 -24z"/>
   <path class="fil0" d="M4022 5100c-3,7 -3,21 -11,20 -6,-1 -5,-6 -3,-10 3,-6 9,-8 14,-10z"/>
   <path class="fil0" d="M4006 5175c-8,3 -15,8 -19,13 -6,7 2,11 9,11 7,0 14,-4 16,-11 2,-7 3,-16 -6,-13z"/>
   <path class="fil0" d="M3952 5107c4,6 4,17 10,17 5,-1 5,-6 3,-9 -3,-5 -8,-7 -13,-8z"/>
  </g>
 </g>
</svg>
